<svg width="533" height="478" viewBox="0 0 533 478" fill="none" xmlns="http://www.w3.org/2000/svg">
<g filter="url(#filter0_f_180_368)">
<path d="M415.131 56.7297C375.77 35.5934 369.072 48.3851 325.221 39.8408C301.135 35.1479 285.119 23.0455 261.256 17.3247C233.312 10.6253 221.241 11.4574 192.796 7.37536C161.091 2.82544 147.738 24.0677 119.861 39.8409C98.5022 51.926 89.6808 66.1549 64.3281 92.935C44.2546 114.139 37.1099 118.747 28.8724 146.759C15.1937 193.275 -7.4376 212.972 18.9351 270.516C28.518 291.426 41.2313 293.07 55.3574 311.222C72.0124 332.624 75.9492 346.25 88.1377 370.475C106.379 406.731 135.228 403.23 169.841 424.424C194.9 439.768 200.586 461.507 229.645 465.86C282.755 473.816 321.717 473.153 372.322 455.181C413.735 440.473 427.081 424.041 462.344 397.815C489.032 377.966 495.44 389.073 515.517 349.773C524.397 332.391 525.77 298.38 525.77 278.861C525.77 249.834 521.894 218.458 511.673 191.29C495.44 148.145 491.841 131.959 471.091 101.583C455.452 78.69 439.557 69.8461 415.131 56.7297Z" stroke="#FEE088" stroke-width="3.5"/>
</g>
<defs>
<filter id="filter0_f_180_368" x="0" y="0" width="532.519" height="477.47" filterUnits="userSpaceOnUse" color-interpolation-filters="sRGB">
<feFlood flood-opacity="0" result="BackgroundImageFix"/>
<feBlend mode="normal" in="SourceGraphic" in2="BackgroundImageFix" result="shape"/>
<feGaussianBlur stdDeviation="2.5" result="effect1_foregroundBlur_180_368"/>
</filter>
</defs>
</svg>
