<svg width="44" height="44" viewBox="0 0 44 44" fill="none" xmlns="http://www.w3.org/2000/svg">
<path d="M11.6861 30.0324C11.5088 29.9545 11.7583 29.8722 11.4577 29.7919C11.4678 29.7561 11.4776 29.7197 11.4877 29.6838C11.5641 29.7486 11.6405 29.813 11.7168 29.8777C11.7067 29.9293 11.6966 29.9809 11.6864 30.0327C11.6863 30.0326 11.6862 30.0325 11.6861 30.0324ZM12.5274 30.958C12.3545 30.7285 12.3907 30.585 12.108 30.4964C12.1693 30.5732 12.2304 30.6501 12.2918 30.7269C12.2045 30.707 12.1171 30.6874 12.0301 30.6678C12.0443 30.7063 12.0586 30.7447 12.0725 30.7829C11.9371 30.6783 11.8014 30.5733 11.6657 30.4684C11.697 30.4723 11.7287 30.4763 11.76 30.4801C11.7167 30.3285 11.7383 30.2537 11.7937 30.162C11.7588 30.14 11.7242 30.1184 11.6893 30.0964C11.775 30.1074 11.8607 30.1185 11.9461 30.1296C11.9613 30.2093 11.9779 30.2981 11.9922 30.3722C12.2282 30.5125 12.2079 30.3234 12.2126 30.2402C12.2189 30.1268 12.2948 30.2298 12.3018 30.1479C12.303 30.135 12.2337 30.064 12.2465 30.0488C12.3117 29.9726 12.4862 29.8724 12.5695 30.1164C12.432 30.2117 12.4642 30.4423 12.302 30.5085C12.5214 30.6675 12.5256 30.792 12.5274 30.958ZM14.063 28.2175C14.1196 28.3447 14.0107 28.3794 13.8983 28.3643C13.8982 28.3644 13.8981 28.3644 13.8981 28.3645C13.8733 28.3611 13.727 28.2633 13.7669 28.2333C13.8324 28.1848 14.0522 28.3495 13.9516 28.1891C13.9893 28.2 14.025 28.2075 14.063 28.2175ZM14.1755 28.0823C14.2576 28.0944 14.3866 28.2551 14.3036 28.2597C14.3037 28.2598 14.3038 28.2599 14.3039 28.26C14.2693 28.2619 14.1906 28.1116 14.2413 28.2933C14.1375 28.2163 14.0421 28.1472 13.9414 28.0729C13.956 28.0554 13.9682 28.0384 13.9839 28.0204C14.1212 28.1804 14.0938 28.0704 14.1755 28.0823ZM12.5467 29.9754C12.4186 29.8363 12.3964 29.8601 12.2644 29.8066C12.3058 29.7739 12.3475 29.7416 12.3887 29.7092C12.4414 29.7981 12.494 29.8865 12.5467 29.9754ZM11.6567 30.8241C11.6566 30.8241 11.6566 30.8242 11.6565 30.8243C11.6654 30.8575 11.6744 30.8908 11.6833 30.9235C11.6283 30.8831 11.5736 30.8427 11.5187 30.8022C11.5206 30.8899 11.5223 30.9777 11.5246 31.0656C11.384 30.9147 11.4846 30.8615 11.4251 30.7173C11.532 30.6982 11.647 30.7524 11.7746 30.8719C11.7355 30.856 11.696 30.8398 11.6567 30.8241ZM22.5396 21.1032C22.5136 21.0485 22.4873 20.994 22.4613 20.9393C22.4238 20.9399 22.3908 20.9447 22.3502 20.9425C22.4756 21.1684 22.3156 21.0178 22.2605 21.0944C22.0922 21.3295 22.4185 21.5487 21.8368 21.3314C22.002 21.2041 21.7581 21.0726 21.7017 20.8398C21.83 20.9316 21.9909 21.2672 22.1016 21.2595C22.0872 21.041 22.0768 20.8344 22.1148 20.646C22.0924 20.6303 22.0701 20.6145 22.0477 20.5987C22.0418 20.6287 22.036 20.6586 22.0301 20.6885C21.9985 20.6182 21.967 20.5488 21.9351 20.4776C22.0259 20.6181 22.0247 20.4901 22.149 20.6314C22.2044 20.6943 22.2584 20.8044 22.2984 20.8774C22.3718 20.8655 22.4437 20.8498 22.5167 20.8365C22.5414 20.906 22.5662 20.9755 22.5912 21.0448C22.5744 21.0645 22.5573 21.0837 22.5405 21.1034C22.5402 21.1034 22.5399 21.1033 22.5396 21.1032ZM31.1091 11.3043C31.1925 11.4961 31.1169 11.6173 30.9119 11.516C30.9778 11.4455 31.0433 11.3748 31.1091 11.3043ZM11.8806 30.9696C11.851 30.9524 11.822 30.9352 11.7924 30.9179C11.7762 30.8475 11.7604 30.7773 11.7442 30.7069C11.817 30.7693 11.8899 30.8315 11.9626 30.8935C11.9354 30.9189 11.9077 30.9442 11.8806 30.9696ZM13.538 29.1617C13.5223 29.1856 13.5183 29.1851 13.484 29.2001C13.4841 29.2002 13.4841 29.2002 13.4842 29.2002C13.4708 29.2064 13.3495 29.2488 13.3066 29.1876C13.3464 29.1461 13.3906 29.1036 13.4322 29.0621C13.4677 29.095 13.5019 29.1287 13.538 29.1617ZM13.0293 29.6096C13.0292 29.6095 13.029 29.6094 13.0288 29.6094C13.0061 29.6163 12.976 29.6142 12.9578 29.6265C12.9309 29.4897 13.0865 29.6279 13.0948 29.5364C13.1029 29.4447 13.0527 29.3328 13.2963 29.4917C13.3107 29.5376 13.3369 29.5977 13.3558 29.649C13.2045 29.6394 13.2611 29.7342 13.2836 29.8704C13.1987 29.7832 13.1143 29.6967 13.0293 29.6096ZM21.2343 21.5942C21.3202 21.7072 21.2075 21.6247 21.2047 21.6251C21.2047 21.6249 21.2046 21.6248 21.2045 21.6246C21.1767 21.8368 21.165 21.5539 21.0363 21.6516C21.0282 21.6099 21.0186 21.5671 21.0101 21.5252C21.0839 21.5474 21.1649 21.5752 21.2343 21.5942ZM17.3273 25.4825C17.2972 25.4546 17.2668 25.4269 17.2368 25.399C17.3115 25.3377 17.2148 25.2063 17.3752 25.2536C17.3595 25.3302 17.3436 25.4066 17.3276 25.4828C17.3275 25.4827 17.3274 25.4826 17.3273 25.4825ZM14.0917 29.0295C14.0716 29.1603 14.0401 29.2405 13.8799 29.2251C13.8797 29.225 13.8795 29.225 13.8794 29.2249C13.8698 29.2237 13.8294 29.1429 13.8086 29.133C13.8028 29.1571 13.8013 29.1864 13.797 29.2124C13.7464 29.1659 13.6959 29.1193 13.6456 29.0731C13.7019 29.0443 13.7581 29.0155 13.8146 28.9866C13.7799 28.9645 13.7453 28.9428 13.7106 28.9207C13.7322 28.8699 13.7537 28.8192 13.7753 28.7683C13.8423 28.8605 13.9093 28.9527 13.9767 29.045C14.0151 29.04 14.053 29.0343 14.0917 29.0295ZM18.777 24.667C18.7334 24.6473 18.7026 24.5721 18.6568 24.5635C18.6113 24.5552 18.6361 24.6485 18.5548 24.5512C18.5679 24.5142 18.5804 24.4741 18.5933 24.4361C18.3503 24.3572 18.4141 24.5847 18.2141 24.3872C18.3443 24.3599 18.3851 24.2713 18.4063 24.14C18.561 24.3009 18.6211 24.5136 18.8172 24.6137C18.8038 24.6311 18.7906 24.6503 18.7769 24.6665C18.7769 24.6666 18.777 24.6668 18.777 24.667ZM12.7568 34.05C12.6982 34.0846 12.6557 34.2558 12.5049 34.2228C12.4678 34.2146 12.1261 33.9695 12.0876 33.9305C11.9588 33.7989 12 33.7222 11.852 33.7004C11.8724 33.6783 11.8881 33.6528 11.9068 33.6294C11.8155 33.5456 11.7245 33.4621 11.6336 33.3785C11.6211 33.4173 11.6087 33.4563 11.5965 33.4954C11.5662 33.4677 11.5359 33.4399 11.5057 33.4122C11.5974 33.3193 11.4311 33.2619 11.3747 33.1099C11.278 33.1013 11.1811 33.0933 11.0845 33.0845C11.1163 33.0656 11.151 33.0405 11.181 33.0257C11.0356 32.8743 11.0176 32.963 10.9809 32.9447C10.774 32.8408 11.1146 32.657 10.9201 32.4196C10.8543 32.4375 10.7869 32.458 10.7204 32.4771C10.706 32.4382 10.6918 32.3991 10.6774 32.3602C10.9236 32.412 11.0853 32.3558 11.2913 32.3354C11.2954 32.319 11.2993 32.3025 11.3035 32.2865C11.2335 32.2225 11.1639 32.1586 11.0939 32.0946C11.1015 32.0712 11.1093 32.0478 11.1168 32.0244C11.292 32.2906 11.352 32.2246 11.5627 32.2832C11.5998 32.4012 11.5028 32.4041 11.6508 32.5452C11.6785 32.2951 11.9983 32.2896 12.0079 32.0289C12.0104 31.9644 11.8238 31.7781 11.9199 31.7164C11.9377 31.7396 11.9742 31.777 11.9994 31.8057C12.0465 31.58 12.0759 31.4439 12.3087 31.3932C12.2335 31.3344 12.1582 31.2752 12.083 31.2164C12.0863 31.2798 12.0901 31.3438 12.0935 31.4071C11.9624 31.3169 11.9438 31.2379 11.8552 31.3288C11.7826 31.4032 11.8752 31.4083 11.888 31.4611C11.9057 31.5329 11.7938 31.4686 11.8147 31.5478C11.8306 31.6087 11.9462 31.6756 11.8643 31.7112C11.7697 31.5693 11.6717 31.4231 11.5757 31.2796C11.6167 31.2919 11.658 31.3047 11.6992 31.3173C11.7164 31.3634 11.7333 31.4089 11.7505 31.455C11.7447 31.3472 11.7393 31.2454 11.7333 31.1338C11.887 31.3219 11.8775 31.2033 11.8869 31.1535C11.9014 31.0758 11.9796 31.233 11.9902 31.1831C12.0005 31.133 11.9017 30.9689 11.9844 30.9424C12.0312 31.0478 12.1393 31.0762 12.2019 31.1541C12.2644 31.2321 12.2221 31.3054 12.3543 31.3265C12.4028 31.1615 12.0195 31.0099 12.0483 30.8944C12.0828 30.7557 12.5394 31.1711 12.6073 31.2907C12.6608 31.3848 12.576 31.4398 12.629 31.5338C12.8868 31.5412 12.6262 31.2783 12.5963 31.2057C12.4877 30.9414 12.9331 31.4913 12.8452 31.2192C12.9365 31.314 13.0188 31.3991 13.1064 31.4901C13.1053 31.4572 13.0933 31.4241 13.099 31.3915C12.8611 31.2668 12.9152 31.2282 12.9387 31.2041C12.9756 31.166 12.8292 31.1355 12.8163 31.1027C12.782 31.0149 12.8521 31.0003 12.7462 30.9464C12.7951 30.9719 12.845 30.9965 12.8938 31.0214C12.8913 30.9313 12.6058 30.44 12.5863 30.6164C12.4511 30.4629 12.5522 30.5006 12.5988 30.4978C12.6455 30.4951 12.5531 30.4036 12.5918 30.3989C12.7462 30.3803 12.8469 30.5941 12.9564 30.731C12.9857 30.532 12.8177 30.5876 12.9255 30.3663C12.841 30.25 12.6578 30.2188 12.6632 30.0976C12.8493 30.2603 13.0212 30.339 13.17 30.3061C13.1387 30.2572 13.107 30.208 13.0758 30.159C13.2864 30.2704 13.4284 30.4632 13.3206 30.1717C13.6387 30.5884 13.4375 30.3195 13.6693 30.3868C13.7161 30.4003 13.7538 30.5151 13.8157 30.5304C13.8437 30.5373 13.8118 30.4541 13.8821 30.4727C13.9166 30.4821 14.1172 30.5648 14.0907 30.4567C13.8828 30.3087 13.8089 30.0798 13.5952 29.999C13.7543 29.9125 13.7548 29.741 13.8599 30.1214C13.9449 30.144 14.0297 30.1665 14.1145 30.1888C14.0938 30.1247 14.0736 30.0606 14.0533 29.9966C14.2029 30.1396 14.2406 30.1839 14.3005 30.0726C14.2979 30.1442 14.296 30.2163 14.2935 30.2885C14.3218 30.3193 14.3473 30.3551 14.3772 30.3826C14.3667 30.2807 14.4712 30.1279 14.4634 30.0577C14.4557 29.9876 14.3848 30.0372 14.356 29.9905C14.1194 29.6043 14.3432 29.8399 14.3434 29.7328C14.3433 29.6697 14.2337 29.7105 14.2371 29.6802C14.2503 29.5684 14.4447 29.7049 14.5022 29.6516C14.3886 29.5773 14.2737 29.5015 14.1597 29.4259C14.2228 29.3727 14.2884 29.3088 14.3123 29.2246C14.3217 29.1916 14.2358 29.1378 14.2346 29.1297C14.2278 29.0885 14.2597 28.9805 14.2668 28.9728C14.3219 28.9166 14.4203 29.0117 14.4797 28.9629C14.4667 28.9923 14.4541 29.0197 14.4412 29.0484C14.5886 29.2147 14.7358 29.3812 14.8836 29.5478C14.948 29.5062 15.0123 29.4643 15.077 29.4225C14.9857 29.409 14.8945 29.3959 14.8032 29.3824C14.7373 29.1949 14.671 29.007 14.6048 28.8192C14.7143 28.8654 14.8236 28.9117 14.9332 28.9579C14.9986 28.8514 14.6652 28.5527 14.9829 28.7888C14.9848 28.74 14.9868 28.6913 14.989 28.6428C15.0249 28.686 15.0609 28.7291 15.0968 28.7722C15.103 28.7174 15.1094 28.6627 15.1154 28.6076C14.9434 28.4998 14.7646 28.3841 14.597 28.2801C14.6268 28.1896 14.7466 28.3071 14.7852 28.3277C14.8874 28.3824 14.8288 28.2294 14.9203 28.2831C14.9516 28.3016 14.9708 28.4387 15.0812 28.5085C15.1027 28.522 15.5128 28.7743 15.4866 28.6475C15.4257 28.5885 15.3482 28.5188 15.2809 28.4555C15.3121 28.3514 15.6599 28.6301 15.7387 28.7269C15.7133 28.6293 15.7609 28.5715 15.6723 28.4681C15.6884 28.4473 15.7044 28.4268 15.7205 28.406C15.9351 28.6591 15.9692 28.5395 15.7732 28.3333C15.7366 28.36 15.6996 28.3865 15.663 28.4132C15.4405 28.1428 15.1955 28.0902 15.624 28.1183C15.7905 28.2083 15.5385 28.1689 15.6657 28.2337C15.7757 28.2354 15.7798 28.1378 15.9206 28.1756C16.0962 28.223 16.1246 28.4091 16.1319 28.1179C15.447 28.0915 15.9368 27.8325 15.9812 27.5675C16.3749 27.8762 16.6168 27.8569 16.6922 27.5725C16.5757 27.4935 16.5694 27.6004 16.5047 27.6009C16.4399 27.6013 16.4171 27.508 16.3309 27.5029C16.2446 27.4979 16.0963 27.5221 15.9861 27.4942C15.9656 27.404 16.0067 27.1013 16.0502 27.3721C16.2319 27.3841 16.3713 27.4438 16.4946 27.3568C16.3736 27.1728 16.2763 27.0802 16.3744 26.9733C16.5257 27.2458 16.7895 27.2766 16.9827 27.5212C16.8591 27.5429 16.6869 27.2895 16.543 27.2297C16.5285 27.2238 16.5141 27.3449 16.4946 27.3568C16.7541 27.4796 16.8489 27.5271 17.0343 27.7966C17.0627 27.7284 17.1213 27.7268 17.0171 27.6138C17.0743 27.6509 17.1316 27.6879 17.1887 27.7251C17.2032 27.7082 17.213 27.6896 17.2306 27.6738C17.0438 27.533 17.1892 27.5893 17.1465 27.4834C17.1038 27.3774 16.9321 27.2905 17.0172 27.2019C16.9499 27.1925 16.8905 27.1861 16.8262 27.1778C16.8401 27.0796 16.8539 26.981 16.8678 26.8828C16.7284 26.822 16.4944 26.7587 16.365 26.6247C16.4405 26.6486 16.4416 26.4727 16.4477 26.4594C16.4717 26.4085 16.5343 26.512 16.5392 26.5112C16.6385 26.4927 16.6587 26.4159 16.8069 26.5194C16.7944 26.4183 16.8601 26.4173 16.9038 26.3672C16.9279 26.3396 16.8304 26.2522 16.8631 26.2546C17.0807 26.2713 17.1044 26.4864 17.0708 26.0652C16.983 26.0243 16.8939 25.9816 16.8055 25.9401C16.8031 25.8939 16.8004 25.8477 16.798 25.8015C16.8244 25.7986 16.8507 25.7959 16.877 25.7929C17.0163 25.9328 17.1559 26.0731 17.2952 26.2131C17.3188 26.2046 17.3424 26.1959 17.366 26.1874C17.3522 26.2287 17.3384 26.2701 17.3245 26.3114C17.3466 26.3385 17.3688 26.3654 17.3909 26.3925C17.4699 26.3896 17.5491 26.3872 17.6284 26.3846C17.5806 26.3353 17.5325 26.2856 17.4847 26.2362C17.6446 26.2116 17.6879 26.2505 17.6418 26.029C17.7109 25.9629 17.5628 25.7048 17.5164 25.5803C17.5576 25.5935 17.5992 25.607 17.6406 25.6201C17.6092 25.5707 17.578 25.5214 17.5466 25.472C17.6206 25.5104 17.6949 25.5486 17.7686 25.5867C17.6509 25.4492 17.6162 25.4043 17.502 25.4289C17.3672 25.2465 17.5594 25.1942 17.6624 25.1978C17.7406 25.2004 17.831 25.3747 17.8519 25.386C17.9223 25.4249 17.9374 25.3155 17.9595 25.3115C18.0525 25.294 18.0846 25.2487 18.1638 25.228C18.1794 25.2242 18.2905 25.2809 18.2954 25.2812C18.3277 25.2776 18.4128 25.274 18.419 25.2702C18.7415 25.0728 18.0999 24.9867 18.38 24.7833C18.3247 24.7426 18.2704 24.7016 18.2154 24.6607C18.2307 24.6395 18.2464 24.6183 18.2617 24.5971C18.325 24.6141 18.3699 24.715 18.357 24.6102C18.4132 24.6723 18.4693 24.7345 18.525 24.7964C18.5131 24.7445 18.5007 24.6936 18.4893 24.6412C18.7266 24.8143 18.8905 24.7436 19.123 24.9928C19.2022 25.0776 19.2031 25.2449 19.3346 25.2885C19.3875 25.27 19.2655 25.1963 19.2749 25.1766C19.3444 25.0357 19.4755 25.179 19.4819 25.0994C19.4298 25.0338 19.377 24.9667 19.3245 24.9004C19.358 24.9015 19.3915 24.9025 19.4252 24.9034C19.3894 24.8601 19.3538 24.8166 19.3181 24.7733C19.3002 24.7859 19.2803 24.8005 19.2636 24.8118C19.1301 24.6392 19.2409 24.391 19.3029 24.5899C19.328 24.6708 19.2544 24.6993 19.4675 24.8479C19.4895 24.7738 19.5174 24.6927 19.5419 24.6161C19.5824 24.6534 19.6229 24.691 19.6634 24.7283C19.7063 24.635 19.4887 24.5413 19.4054 24.4578C19.4186 24.4398 19.4323 24.422 19.4456 24.4041C19.4899 24.4352 19.5357 24.4684 19.5791 24.4981C19.5197 24.4374 19.3889 24.2891 19.4872 24.2945C19.5507 24.2983 19.6552 24.4968 19.6911 24.4189C19.5932 24.3295 19.4586 24.236 19.4918 24.1424C19.5959 24.2338 19.6941 24.3147 19.8017 24.4125C19.7867 24.2397 19.9736 24.3548 19.957 24.153C19.9466 24.0252 19.7819 23.6995 20.1977 24.0394C20.2506 24.0064 20.1429 23.9259 20.1344 23.892C20.0943 23.7319 20.3181 23.8665 20.3398 23.8658C20.4787 23.862 20.4486 23.7681 20.5913 23.7945C20.5182 23.7277 20.4503 23.6632 20.3795 23.5975C20.4311 23.7556 20.3992 23.7776 20.302 23.8297C20.313 23.7906 20.3237 23.7512 20.3347 23.7121C20.2738 23.6595 20.213 23.6067 20.1526 23.5542C20.1453 24.0087 19.8458 23.6015 19.9621 23.3307C20.0839 23.419 20.206 23.5065 20.3279 23.5954C20.2804 23.3243 20.4713 23.4099 20.6308 23.3166C20.6496 23.3053 20.6439 23.19 20.6644 23.1635C20.6636 23.1635 20.6628 23.1635 20.662 23.1635C20.5775 23.0496 20.512 23.0238 20.4209 22.9375C20.4225 22.9136 20.4242 22.8898 20.4259 22.8659C20.5219 22.905 20.5675 22.9705 20.6074 22.8984C20.5325 22.8386 20.4578 22.7788 20.3829 22.719C20.4419 22.6552 20.5553 22.6882 20.5808 22.5994C20.5967 22.6345 20.6128 22.6695 20.6286 22.7046C20.818 22.6451 21.1148 23.1399 21.0118 22.8489C21.0523 22.8775 21.093 22.9065 21.1335 22.935C21.1033 22.9823 21.0727 23.0293 21.0427 23.0763C21.0907 23.126 21.1385 23.1755 21.1868 23.225C21.2136 23.1689 21.2401 23.1122 21.2669 23.0561C21.2694 23.1192 21.2718 23.1824 21.2744 23.2454C21.3458 23.2208 21.4173 23.1962 21.4887 23.1716C21.258 23.0429 21.3022 22.9548 21.1118 22.7893C21.345 22.8524 21.607 22.9808 21.6138 22.724C21.6151 22.673 21.4765 22.5628 21.702 22.64C21.4862 22.4601 21.4863 22.2743 21.2862 22.0981C21.2694 22.133 21.2484 22.1655 21.2345 22.2016C21.3282 22.2384 21.5125 22.4132 21.5225 22.5098C21.5351 22.633 21.3301 22.5892 21.5327 22.7852C21.5013 22.7978 21.4752 22.8128 21.4459 22.8263C21.4053 22.7681 21.3642 22.7097 21.3234 22.6516C21.34 22.79 21.2765 22.8031 21.1226 22.7078C21.1665 22.6065 21.2105 22.5057 21.2547 22.4047C21.2356 22.4069 21.2162 22.4092 21.1973 22.4117C21.1249 22.2294 20.9476 22.1655 21.0229 22.0358C21.0806 22.0946 21.1383 22.1534 21.1962 22.2126C21.0778 22.0195 21.1809 21.9182 20.9691 21.7716C21.055 21.7958 21.0961 21.8243 21.017 21.7103C21.2346 21.7649 21.459 21.8848 21.6355 22.1193C21.6326 22.056 21.6298 21.9926 21.6268 21.9294C21.5531 21.8907 21.4797 21.8523 21.406 21.8136C21.4621 21.7645 21.5186 21.715 21.5742 21.6657C21.7455 21.8269 21.5234 21.8174 21.7027 21.9354C21.7386 21.959 21.7031 21.8668 21.7273 21.8762C21.9875 21.9796 21.7331 21.9713 21.8954 22.0875C22.0553 22.0137 22.1952 22.3405 22.16 21.9835C22.2123 22.0272 22.2658 22.0716 22.3174 22.1154C22.3762 22.0624 22.2632 21.9585 22.2908 21.89C22.3081 21.8472 22.5362 21.9998 22.4398 21.8369C22.4218 21.8071 22.1333 21.6303 22.2609 21.5231C22.36 21.4399 22.4865 21.6423 22.594 21.6513C22.7016 21.6602 22.5864 21.3195 22.8781 21.5447C22.818 21.5363 22.7667 21.5507 22.7099 21.5513C22.7486 21.6133 22.787 21.6744 22.8256 21.736C22.8261 21.6055 22.9704 21.6144 22.8945 21.4502C23.1655 21.5464 23.0929 21.2783 22.8592 21.0975C22.8603 21.1562 22.982 21.2152 22.8844 21.1976C22.832 21.1534 22.7797 21.1097 22.7273 21.0654C22.8012 21.0033 22.847 20.9547 22.9633 21.1329C22.9773 21.1259 22.9913 21.1189 23.0053 21.1119C22.9007 21.0035 22.7954 20.8948 22.6908 20.7864C22.6913 20.7618 22.6921 20.7372 22.6927 20.7126C22.7301 20.722 22.7678 20.7317 22.8057 20.7412C22.9552 20.9289 22.9283 20.9669 23.13 20.9537C23.0721 20.8952 23.0145 20.8367 22.9566 20.7781C23.1206 20.7623 23.264 20.901 23.3717 20.7829C23.4873 21.0717 23.0814 20.7606 23.4874 21.166C23.4391 21.1611 23.3902 21.156 23.3418 21.1511C23.3973 21.2132 23.453 21.2754 23.5086 21.3374C23.5943 21.1897 23.4012 20.6089 23.7359 20.7874C23.714 20.7466 23.6963 20.7099 23.6722 20.6667C23.9036 20.745 23.589 20.3643 23.8669 20.4868C23.8959 20.4998 24.2058 20.8432 24.2951 20.7305C24.2502 20.6905 24.1774 20.6204 24.1218 20.5689C24.1697 20.573 24.2188 20.5785 24.2671 20.5834C24.2319 20.5403 24.1968 20.497 24.1612 20.4535C24.1087 20.4756 24.056 20.4974 24.0034 20.5195C24.021 20.475 24.0387 20.4303 24.0563 20.3858C23.9517 20.3622 23.9328 20.3798 23.8545 20.2527C23.8835 20.2115 23.9121 20.1698 23.9411 20.1285C23.9184 20.0986 23.8954 20.0684 23.8727 20.0384C23.7772 19.977 23.6833 19.9175 23.5867 19.8549C23.7423 19.8275 23.8254 19.7514 24.0498 19.8354C24.0878 19.8495 24.1477 19.994 24.1371 19.8203C24.1925 19.8732 24.2386 19.9149 24.2901 19.9635C24.2383 19.7121 24.3164 19.7245 24.5299 19.7299C24.3604 19.6951 24.487 19.7014 24.4494 19.6295C24.4234 19.5801 24.3831 19.6315 24.3488 19.5869C24.3148 19.5424 24.216 19.3244 24.146 19.3564C24.3456 19.806 23.9234 19.452 23.9188 19.7686C23.9016 19.7021 23.8846 19.6352 23.8675 19.5686C23.8274 19.5519 23.7913 19.5366 23.7486 19.519C23.9017 19.4929 23.8168 19.4953 23.8036 19.4084C23.7904 19.3215 23.8148 19.212 23.846 19.1534C23.8558 19.1349 23.9137 19.2226 23.9524 19.1975C23.9788 19.1804 23.9302 19.0131 24.0712 19.1266C24.163 19.2005 24.2957 19.524 24.4271 19.3915C24.5331 19.4479 24.4446 19.4859 24.4531 19.4971C24.5382 19.6052 24.6919 19.5967 24.6556 19.4855C24.6523 19.4761 24.5474 19.4304 24.5501 19.3687C24.5559 19.2217 24.6863 19.264 24.8526 19.3313C24.7209 19.189 24.6216 18.9611 24.7522 18.9317C24.7171 18.8884 24.6815 18.845 24.6461 18.8014C24.6544 18.8345 24.6625 18.8674 24.6708 18.9006C24.6327 18.8896 24.6004 18.886 24.5582 18.8703C24.605 18.7561 24.4276 18.5559 24.3971 18.4483C24.2931 18.0803 24.7123 18.6595 24.7745 18.7693C24.7225 18.7516 24.667 18.7294 24.6134 18.7098C24.663 18.7556 24.713 18.8018 24.7627 18.848C24.9589 18.6489 25.1026 19.1277 25.2916 19.116C25.0826 18.8555 25.1337 18.7592 25.3765 18.8143C25.3857 18.8027 25.3959 18.792 25.4048 18.7801C25.3723 18.7442 25.32 18.6919 25.3002 18.6665C25.3735 18.5136 25.7552 18.855 25.8001 18.8785C25.9996 18.9828 25.8264 18.7356 25.8387 18.7198C25.8904 18.6534 26.0009 18.7296 26.017 18.6333C26.0342 18.5295 25.9212 18.4993 25.8755 18.4168C25.8394 18.3511 25.878 18.2944 25.8449 18.2219C25.8803 18.2729 25.9139 18.3239 25.9494 18.375C26.0709 18.3712 26.1794 18.3773 26.2649 18.3205C26.0295 17.9244 26.6304 18.3887 26.1708 17.9844C26.0738 18.0223 25.9869 18.0107 25.8408 17.9368C25.871 17.8785 25.9016 17.8205 25.9318 17.7622C25.9921 17.7967 26.0474 17.8337 26.111 17.8668C26.0434 17.733 26.1633 17.6996 26.1638 17.6399C26.1663 17.3605 25.951 17.2324 26.3682 17.3924C26.3036 17.5132 26.444 17.6532 26.3327 17.7259C26.4526 17.8061 26.4786 17.7387 26.5684 17.8889C26.6278 17.7704 26.4919 17.692 26.4314 17.5623C26.3793 17.4504 26.4348 17.3857 26.3248 17.2825C26.3896 17.3349 26.4511 17.3869 26.5157 17.4393C26.5727 17.3811 26.6303 17.3234 26.6874 17.2652C26.724 17.3509 26.7607 17.4368 26.797 17.5222C26.8387 17.5267 26.8803 17.5312 26.922 17.5357C26.8734 17.2037 27.4666 17.308 26.9495 16.8691C27.0027 16.7855 27.0712 16.8369 27.1988 16.8902C27.1666 16.8498 27.1404 16.8156 27.1041 16.7712C27.1861 16.7651 27.0838 16.595 27.1581 16.5915C27.2321 16.5877 27.3704 16.7068 27.1598 16.4848C27.247 16.5217 27.3236 16.5481 27.4063 16.5808C27.3723 16.5165 27.3388 16.4529 27.3049 16.3891C27.3543 16.3912 27.4036 16.3932 27.453 16.3953C27.3624 16.2794 27.4997 16.2311 27.4713 16.1208C27.6215 16.1932 27.9709 16.5447 27.9995 16.3905C27.9102 16.3059 27.8213 16.2216 27.732 16.137C27.7711 16.1342 27.8101 16.1313 27.8494 16.1284C27.879 16.1555 27.9085 16.1828 27.9381 16.2099C27.9186 16.2118 27.8993 16.2136 27.8795 16.2153C27.9368 16.254 27.9937 16.2927 28.0509 16.3315C28.0117 16.2284 27.9726 16.1253 27.9336 16.0221C27.8364 16.0115 27.7393 16.001 27.6421 15.9904C27.6326 15.8723 27.7341 15.8981 27.7102 15.7797C27.8713 15.8586 27.9253 15.9429 28.0388 16.0898C28.0429 16.0635 28.0477 16.0373 28.0518 16.0109C28.172 16.1512 28.2754 16.203 28.1756 16.2817C28.2189 16.3127 28.2606 16.3419 28.3052 16.3745C28.3139 16.354 28.3548 16.3759 28.3566 16.3455C28.3611 16.2625 28.1659 16.0002 28.0827 15.923C28.0391 15.8826 28.0763 16.0061 28.0186 15.945C27.8781 15.7959 28.0421 15.7619 27.7538 15.7592C27.709 15.6196 27.7892 15.6786 27.8681 15.6529C27.8157 15.6087 27.7638 15.5648 27.7116 15.5204C27.7581 15.5184 27.8045 15.5163 27.851 15.5143C28.0652 15.7959 28.3371 15.7103 28.393 16.0881C28.4517 16.0517 28.5103 16.0155 28.5694 15.9798C28.5851 16.015 28.6005 16.05 28.6162 16.0852C28.5813 16.0931 28.5468 16.1012 28.5122 16.1094C28.584 16.1308 28.6554 16.1518 28.7272 16.1731C28.729 16.0559 28.6637 15.9439 28.5814 15.8072C28.4323 15.7966 28.564 15.8831 28.5317 15.9587C28.4643 15.8875 28.398 15.8262 28.3299 15.7487C28.5014 15.8644 28.4879 15.6689 28.502 15.6408C28.5449 15.5553 28.6356 15.7467 28.6815 15.7067C28.7275 15.6667 28.6942 15.532 28.8692 15.6368C28.7902 15.559 28.7062 15.4806 28.6323 15.4117C28.6735 15.3191 28.7528 15.4251 28.7717 15.4301C29.0795 15.5169 28.973 15.2903 29.0792 15.1437C29.0389 15.1354 29.0007 15.1297 28.9617 15.1231C28.8906 14.8612 28.8773 14.9765 28.7394 15.0043C28.8338 14.9433 28.7364 14.757 28.7491 14.6601C28.7618 14.5632 28.9286 14.542 29.0197 14.5645C29.0324 14.7344 28.8875 14.7589 28.8254 14.8713C28.9152 14.9413 28.9925 14.9993 29.0905 15.0768C28.9759 14.8561 29.1187 14.9375 29.1584 14.9422C29.275 14.9561 29.1295 14.8138 29.3153 14.9376C29.2608 14.8856 29.2151 14.8418 29.1641 14.7933C29.2923 14.7096 29.5008 14.6894 29.3731 14.4237C29.5073 14.5453 29.6353 14.6638 29.7731 14.7871C29.7217 14.646 29.8587 14.7061 29.874 14.6458C29.8891 14.5856 29.7714 14.4966 29.7758 14.4125C29.7767 14.397 29.8584 14.4447 29.8309 14.3768C29.8033 14.3085 29.5217 13.8768 29.8422 14.1794C29.8817 14.1429 29.929 14.1184 29.9714 14.0865C29.9527 14.1402 29.9335 14.1935 29.915 14.2471C30.0214 14.2918 30.1274 14.3364 30.2337 14.381C30.1703 14.3098 30.1058 14.2373 30.0431 14.167C30.0443 14.0019 30.2147 14.0517 30.2726 13.9417C30.2822 13.9233 30.116 13.8232 30.2122 13.795C30.3083 13.7667 30.6029 13.969 30.6129 13.7671C30.6133 13.7567 30.4544 13.5351 30.6241 13.6288C30.6626 13.6501 30.6704 13.7306 30.7294 13.75C30.7885 13.7694 30.9093 13.7131 31.0096 13.7995C30.9756 13.7674 30.9358 13.7387 30.8995 13.7077C30.8988 13.6768 30.8982 13.6457 30.898 13.6149C30.9577 13.6717 31.0175 13.7285 31.0769 13.7851C31.0283 13.5626 30.8521 13.2966 31.0541 13.2409C30.9333 13.1926 30.8121 13.1439 30.6915 13.0953C30.741 13.1647 30.7909 13.2345 30.8405 13.3036C30.7575 13.3393 30.6744 13.3753 30.5913 13.4109C30.6492 13.4883 30.707 13.5653 30.7649 13.6427C30.7403 13.6497 30.7162 13.6568 30.6917 13.6637C30.6468 13.6109 30.6021 13.5583 30.5573 13.5054C30.5382 13.5485 30.5192 13.592 30.5002 13.635C30.2748 13.2833 30.7011 13.4832 30.4515 13.25C30.503 13.2735 30.5547 13.2971 30.6065 13.3209C30.4956 13.1977 30.5578 13.2029 30.6264 13.1711C30.5573 13.1249 30.4877 13.0808 30.4189 13.0331C30.5491 13.0656 30.6278 12.9711 30.7096 12.9519C30.7456 12.9434 30.8083 13.0504 30.8249 13.0538C30.9108 13.0721 30.8275 12.8593 30.8527 12.8575C31.0034 12.8462 31.3367 13.0743 31.24 12.8009C31.1032 12.8465 31.1721 12.8161 31.0369 12.7458C30.9945 12.7238 30.8095 12.7744 30.9868 12.6567C31.0079 12.6432 31.4695 12.5694 31.5301 12.806C31.526 12.7153 31.5051 12.6266 31.4944 12.5365C31.9831 12.8312 31.5816 12.4968 31.3508 12.3224C31.3658 12.3057 31.3789 12.2885 31.3953 12.2721C31.5733 12.5197 31.7638 12.3556 31.7166 12.188C31.701 12.1321 31.5765 12.1204 31.5909 12.0416C31.6281 12.0343 31.6726 12.0284 31.7127 12.0217C31.544 11.921 31.5589 11.8024 31.421 11.6664C31.5857 11.7457 31.8771 11.9718 31.9939 12.1355C31.9723 12.0434 31.9511 11.9513 31.9293 11.8589C31.8804 11.8428 31.8316 11.8272 31.7828 11.8111C31.9841 11.7819 31.9365 11.4378 32.2483 11.7015C32.2616 11.6841 32.2752 11.6669 32.2885 11.6496C32.2446 11.5963 32.2005 11.543 32.1566 11.4897C32.2679 11.4627 32.3793 11.4362 32.4905 11.4092C32.4591 11.5009 32.5136 11.5847 32.3929 11.5931C32.4737 11.6241 32.5552 11.655 32.6355 11.6865C32.5822 11.4388 32.4966 11.3267 32.6877 11.2252C32.6963 11.2206 32.933 11.2363 32.9491 11.2448C33.0226 11.2837 33.078 11.3916 33.1141 11.4123C33.2151 11.4705 33.5452 11.5402 33.5728 11.5729C33.911 11.9747 33.478 12.4175 33.3786 12.555C32.3475 13.9806 30.8822 14.918 29.7066 16.1838C29.6948 16.197 29.7549 16.2462 29.7519 16.2539C29.7324 16.3008 29.6146 16.2483 29.5988 16.2571C29.5653 16.2761 29.6584 16.3403 29.6393 16.3595C29.4403 16.5568 29.2071 16.6975 29.0223 16.9092C29.0103 16.923 28.9605 16.8469 28.949 16.8807C28.9434 16.8985 29.0033 17.0317 28.9783 17.0596C28.891 17.1568 28.7825 17.2034 28.6867 17.3022C28.6343 17.3563 28.5462 17.4279 28.4882 17.4889C28.4625 17.5158 28.4793 17.5874 28.4548 17.6148C28.42 17.6537 28.338 17.5567 28.3268 17.5568C28.2776 17.5574 28.3724 17.6591 28.3465 17.6804C28.2978 17.7196 28.2299 17.6564 28.1797 17.7177C28.1439 17.7616 28.1045 17.9046 28.0695 17.9701C27.8759 18.0115 27.7581 18.1897 27.6737 18.3245C27.6237 18.4043 27.5258 18.3185 27.4997 18.3452C27.4082 18.4402 27.4548 18.6283 27.3711 18.7196C27.2598 18.8408 27.0793 18.8662 26.9611 18.9732C26.942 18.9906 27.0303 19.0705 27.0146 19.0906C26.9562 19.1648 26.8867 19.2649 26.8157 19.312C26.7367 19.3646 26.5902 19.2667 26.5507 19.356C26.5392 19.3823 26.6408 19.4949 26.6229 19.5403C26.594 19.6125 26.4441 19.5734 26.3983 19.5982C26.3359 19.6325 26.487 19.6996 26.4072 19.7501C26.4039 19.7522 26.3161 19.6839 26.3059 19.7016C26.2756 19.753 26.3411 19.8103 26.2755 19.8642C26.269 19.8691 26.1155 19.8739 26.1074 19.8815C26.0599 19.9266 25.9407 19.9938 25.9291 20.037C25.8873 20.1912 26.0817 20.2314 25.7438 20.06C25.7694 20.159 25.7962 20.2586 25.8179 20.3581C25.7874 20.2756 25.6005 20.2994 25.5984 20.3121C25.5796 20.4158 25.7152 20.4784 25.6211 20.5396C25.4948 20.2082 25.4915 20.6103 25.4521 20.6613C25.2629 20.9074 25.0079 21.0481 24.7907 21.2683C24.718 21.3421 24.6683 21.4886 24.5896 21.5649C24.5715 21.5829 24.531 21.5151 24.5139 21.5298C24.4973 21.5449 24.5757 21.5881 24.5544 21.603C24.4207 21.6945 24.2177 21.668 24.258 21.9145C24.2322 21.8988 24.216 21.8823 24.1849 21.8678C24.229 22.0807 23.8936 22.0705 23.8088 22.1079C23.6764 22.1666 23.7388 22.2779 23.6518 22.3298C23.5366 22.3981 23.2291 22.3663 23.5707 22.5849C23.5165 22.6566 23.4583 22.7197 23.3687 22.7572C23.3586 22.7614 23.2923 22.6853 23.288 22.6867C23.2599 22.6944 23.3178 22.764 23.3086 22.779C23.2836 22.8198 23.2609 22.6898 23.2353 22.758C23.222 22.7941 23.2636 22.8638 23.1961 22.9336C22.7884 23.3536 22.3191 23.783 21.8855 24.198C21.8558 24.2265 21.9438 24.2762 21.9029 24.3083C21.7607 24.42 21.4176 24.5314 21.324 24.6566C21.2303 24.7818 21.3557 24.8578 21.3294 24.9685C21.3243 24.9899 21.2778 24.9217 21.265 24.9328C21.1792 25.008 20.9938 25.0144 20.9151 25.0661C20.863 25.1002 20.9567 25.1871 20.9332 25.2234C20.898 25.2773 20.761 25.232 20.7342 25.2529C20.6096 25.3518 20.6062 25.5021 20.4643 25.5691C20.4883 25.5848 20.5094 25.6005 20.5324 25.6167C20.4056 25.7371 20.2789 25.8573 20.152 25.9777C20.176 25.99 20.1999 26.0027 20.2242 26.0153C20.0692 26.1504 19.8891 25.9371 20.3172 26.3397C20.3213 26.3649 20.3271 26.393 20.3304 26.4166C20.1206 26.1985 19.8762 26.1297 19.7101 26.1869C19.6979 26.191 19.8515 26.4545 19.611 26.2021C19.657 26.2767 19.69 26.3268 19.7309 26.3919C19.6327 26.3409 19.535 26.2911 19.437 26.2404C19.4354 26.2643 19.4332 26.2879 19.4316 26.3118C19.478 26.362 19.5296 26.4107 19.5729 26.4622C19.521 26.5287 19.3399 26.5905 19.2992 26.6434C19.1985 26.7751 19.2108 27.024 18.9793 26.9733C18.9496 27.0317 19.0881 27.0828 19.0107 27.1363C18.9553 27.0957 18.9023 27.0567 18.8451 27.0149C19.0061 27.2829 18.8644 27.1636 18.7463 27.1922C18.6662 27.2113 18.6862 27.2962 18.6287 27.3332C18.6141 27.3426 18.5528 27.2779 18.5467 27.2882C18.5258 27.3221 18.5341 27.487 18.5171 27.5087C18.3645 27.7069 18.2041 27.8479 18.0139 27.9919C17.9936 28.0075 18.079 28.0463 18.0578 28.0623C18.0237 28.088 17.9459 27.975 17.9239 27.9876C17.863 28.0234 17.9633 28.1244 17.9012 28.1971C17.6966 28.4362 17.3658 28.6158 17.1273 28.8408C17.1201 28.8481 17.1795 28.9066 17.1722 28.9151C17.1237 28.9693 16.9921 28.9415 16.9463 28.989C16.8702 29.0675 16.8949 29.2085 16.8182 29.2846C16.6686 29.4336 16.4928 29.5245 16.3369 29.6757C16.2092 29.7994 16.1079 29.9164 15.9698 30.0539C15.3668 30.6546 14.9397 31.456 14.2342 31.9625C14.2161 31.9753 14.1703 31.9169 14.1679 31.9239C14.1457 31.9911 14.212 32.0654 14.0489 31.9341C14.0209 32.0201 14.1135 32.1487 14.0368 32.2096C13.996 32.2421 13.852 32.0433 13.8783 32.1937C13.9022 32.3297 14.058 32.3618 13.7954 32.4324C13.7883 32.4342 13.6621 32.3514 13.6547 32.4132C13.6468 32.475 13.7619 32.5095 13.7007 32.6158C13.5567 32.8652 13.2174 33.0238 13.0165 33.2803C13.0039 33.2964 12.9218 33.4903 12.9203 33.5433C12.9176 33.6461 13.0063 33.7127 12.9568 33.8002C12.9185 33.8678 12.7869 33.8235 12.7423 33.9032C12.7372 33.9126 12.8155 34.0152 12.7568 34.05ZM22.5926 20.6995C22.5167 20.5978 22.2133 20.2478 22.3908 20.2691C22.4076 20.2711 22.5923 20.5357 22.6712 20.5284C22.6527 20.5943 22.6193 20.643 22.5929 20.6998C22.5928 20.6997 22.5927 20.6996 22.5926 20.6995ZM10.3349 32.305C10.4097 32.263 10.4846 32.2206 10.5594 32.1786C10.5586 32.2584 10.5577 32.3382 10.5573 32.4182C10.4832 32.3805 10.4091 32.3427 10.3349 32.305ZM17.7634 25.1869C17.7633 25.187 17.7633 25.187 17.7632 25.1871C17.7825 25.0835 17.8017 24.9798 17.821 24.8763C17.8455 24.9137 17.8702 24.9514 17.8948 24.9889C17.8952 25.0862 17.8955 25.1836 17.896 25.2808C17.8518 25.2495 17.8076 25.2182 17.7634 25.1869ZM17.6066 26.0007C17.5305 26.003 17.4779 25.9312 17.3958 25.8922C17.3959 25.8923 17.396 25.8924 17.3961 25.8925C17.3746 25.8825 17.3343 25.8952 17.3217 25.9031C17.3644 25.9382 17.4077 25.9718 17.4505 26.0063C17.4532 26.1921 16.9393 26.0361 17.0361 25.6695C17.0818 25.7221 17.1274 25.7743 17.1731 25.8269C17.2744 25.6981 17.5094 25.6764 17.6066 26.0007ZM23.3767 19.6323C23.314 19.373 23.3116 19.3075 23.5411 19.2987C23.5699 19.3612 23.5987 19.4236 23.6275 19.4861C23.5613 19.4592 23.4955 19.4326 23.4293 19.4057C23.4292 19.4058 23.4292 19.4058 23.4291 19.4059C23.4741 19.4587 23.5191 19.5116 23.5642 19.5643C23.5018 19.5869 23.4391 19.6097 23.3767 19.6323ZM13.7285 29.6461C13.3796 29.3519 13.5744 29.5309 13.5801 29.3802C13.582 29.3279 13.4994 29.2981 13.5069 29.2719C13.5467 29.1297 13.7694 29.3379 13.8612 29.4703C13.8173 29.5294 13.7722 29.5884 13.7287 29.6459C13.7286 29.646 13.7286 29.646 13.7285 29.6461ZM11.4343 32.0739C11.4343 32.074 11.4342 32.074 11.4341 32.0741C11.3533 31.998 11.3689 31.9402 11.2533 31.9073C11.285 31.8761 11.3171 31.8453 11.349 31.8139C11.3471 31.8305 11.3446 31.847 11.3426 31.8635C11.3777 31.8823 11.4132 31.9013 11.4483 31.9201C11.3693 31.8188 11.4321 31.8608 11.4954 31.8578C11.3899 31.7707 11.2845 31.6834 11.179 31.5962C11.2461 31.5865 11.3135 31.5767 11.3806 31.567C11.4053 31.5908 11.4301 31.6146 11.4548 31.6384C11.4383 31.5929 11.4213 31.5472 11.4047 31.5017C11.4377 31.5267 11.4702 31.5517 11.5031 31.5767C11.4986 31.5373 11.4942 31.4978 11.4894 31.4581C11.5649 31.523 11.5567 31.5918 11.6072 31.5057C11.6582 31.5987 11.7091 31.6914 11.76 31.7845C11.6516 31.8811 11.543 31.9775 11.4343 32.0739ZM14.3414 28.8354C14.2419 28.9618 14.2228 28.8791 14.0898 28.6938C14.1736 28.7411 14.2575 28.7881 14.3414 28.8354ZM20.3005 23.1598C20.2246 23.0184 20.15 22.878 20.0788 22.7397C20.0849 22.6123 20.3497 22.7434 20.377 22.8712C20.4096 23.0248 20.2423 22.9838 20.3005 23.1598ZM21.773 21.5906C21.6409 21.6219 21.5888 21.416 21.532 21.3224C21.6755 21.4207 21.6963 21.3785 21.761 21.3419C21.7213 21.3973 21.795 21.5856 21.7733 21.5909C21.7732 21.5908 21.7731 21.5907 21.773 21.5906ZM18.8637 24.3525C18.8342 24.3885 18.832 24.4513 18.7658 24.4438C18.6708 24.3311 18.8238 24.367 18.628 24.2549C18.6463 24.2314 18.6648 24.2079 18.6826 24.1841C18.7332 24.2611 18.7986 24.291 18.8633 24.3522C18.8634 24.3523 18.8635 24.3524 18.8637 24.3525ZM15.313 27.619C15.5002 27.6777 15.4598 27.6129 15.4393 27.463C15.5485 27.554 15.639 27.7988 15.6276 27.8841C15.5228 27.7957 15.4179 27.7073 15.313 27.619ZM30.5625 12.472C30.6747 12.6151 30.5775 12.7455 30.4832 12.7644C30.471 12.7387 30.4586 12.7128 30.4461 12.6868C30.4848 12.6153 30.5238 12.5436 30.5625 12.472ZM21.7937 21.3265C21.7815 21.3312 21.7707 21.3364 21.761 21.3419C21.768 21.3321 21.7783 21.3261 21.7937 21.3265ZM25.7685 18.4592C25.8619 18.6064 25.9823 18.5668 25.8381 18.6168C25.8382 18.617 25.8383 18.6171 25.8384 18.6172C25.7431 18.6504 25.7207 18.6563 25.6518 18.7065C25.5187 18.5305 25.5842 18.3545 25.3858 18.4891C25.3835 18.4911 25.4798 18.5787 25.4406 18.5927C25.4285 18.597 25.3268 18.5478 25.2649 18.5658C25.2449 18.5717 25.1246 18.6455 25.2554 18.5117C25.1438 18.4079 25.0418 18.2918 24.937 18.1876C24.9583 18.1056 25.2089 18.2769 25.2584 18.2171C25.3313 18.1278 25.1592 17.8732 25.4547 18.1374C25.4552 18.2744 25.3398 18.3932 25.1562 18.2401C25.0882 18.3041 25.2071 18.4609 25.3285 18.4759C25.4698 18.1614 25.5958 18.618 25.6852 18.3084C25.6487 18.2671 25.615 18.217 25.5772 18.1817C25.775 18.2578 25.7351 18.4066 25.7685 18.4592ZM24.9944 18.6381C24.9515 18.5165 24.9079 18.3943 24.8645 18.2726C24.9986 18.4066 25.0973 18.5485 25.1107 18.6861C25.0719 18.67 25.0329 18.654 24.9944 18.6381ZM28.2711 15.2909C28.2039 15.2124 28.1522 15.1305 28.0939 15.0501C28.1673 15.0996 28.5098 14.8751 28.4259 15.0796C28.4137 15.1093 28.1571 15.1082 28.2711 15.2909ZM14.9766 28.1749C15.0589 28.1904 15.1411 28.2062 15.2232 28.2218C15.2031 28.304 15.1837 28.387 15.1642 28.4697C15.1017 28.3714 15.0391 28.2732 14.9766 28.1749ZM20.9719 22.7442C20.955 22.7556 20.9016 22.6085 20.8619 22.6798C20.8392 22.5743 20.8237 22.4813 20.8039 22.3805C20.8634 22.4158 20.9229 22.4508 20.9825 22.4861C20.9615 22.4462 20.9408 22.4063 20.9198 22.3664C20.9833 22.4411 21.0457 22.5137 21.1099 22.5899C20.8936 22.51 21.0459 22.6935 20.9719 22.7442ZM19.2144 25.042C19.052 24.9042 19.0614 24.7161 18.9403 24.7893C18.8601 24.6722 18.8379 24.5908 18.886 24.5252C18.9329 24.5538 18.9794 24.5821 19.0263 24.6107C18.9266 24.5085 18.9037 24.4564 18.8637 24.3525C18.8638 24.3526 18.864 24.3526 18.8641 24.3527C18.9432 24.259 18.9717 24.2978 19.1585 24.443C18.9733 24.4408 19.1222 24.5952 19.15 24.7477C19.1691 24.8525 19.0851 24.8804 19.2144 25.042ZM27.9708 15.5947C27.9088 15.4033 27.7325 15.3431 27.982 15.363C28.0068 15.4026 28.0312 15.4419 28.056 15.4815C28.028 15.5196 27.9995 15.5573 27.9708 15.5947ZM18.3804 24.8468C18.6202 25.0718 18.8621 25.1918 18.4944 24.8033C18.358 24.7856 18.6012 24.9708 18.3804 24.8468ZM22.109 21.9823C21.984 22.0857 21.7433 21.8018 21.6591 21.6237C21.714 21.6642 21.7691 21.7047 21.8236 21.7451C21.8219 21.7034 21.8202 21.6617 21.8189 21.6203C21.9155 21.7409 22.0124 21.8618 22.109 21.9823ZM16.623 27.1148C16.5443 26.8616 16.4365 27.1167 16.3939 26.9521C16.3597 26.8206 16.5911 26.9237 16.6716 27.0528C16.6577 27.0725 16.641 27.0933 16.6232 27.1146C16.6231 27.1147 16.6231 27.1147 16.623 27.1148ZM17.0804 26.5624C16.8888 26.3994 16.9611 26.4305 16.9241 26.5313C16.9135 26.5601 16.6904 26.6499 16.9031 26.7312C16.959 26.6753 17.0206 26.6188 17.0804 26.5624ZM23.1693 20.4032C23.2475 20.4794 23.2966 20.7694 23.2388 20.7424C23.2389 20.7426 23.239 20.7427 23.2391 20.7428C23.0818 20.6689 23.1924 20.5254 22.9786 20.4219C23.2403 20.4394 22.9391 20.0652 23.3755 20.5187C23.3232 20.6101 23.2655 20.4843 23.1693 20.4032ZM32.4205 11.3411C32.4206 11.341 32.4207 11.341 32.4207 11.3409C32.409 11.3454 32.229 11.2987 32.1979 11.2513C32.3117 11.2048 32.372 11.2937 32.324 11.0965C32.3676 11.1319 32.4094 11.1667 32.4536 11.2021C32.4474 11.2551 32.4784 11.3189 32.4205 11.3411ZM28.7333 15.1402C28.7241 15.1898 28.5866 15.1599 28.5581 15.1984C28.3435 14.7702 28.7708 14.9423 28.7333 15.1402ZM12.5275 30.9586C12.5275 30.9584 12.5275 30.9582 12.5274 30.958C12.5276 30.9582 12.5277 30.9584 12.5279 30.9586C12.5277 30.9586 12.5276 30.9586 12.5275 30.9586ZM26.2584 17.2295C26.2831 17.2465 26.3033 17.2625 26.32 17.2776C26.3215 17.2791 26.323 17.2806 26.3245 17.2821C26.3029 17.2646 26.281 17.2471 26.2584 17.2295ZM23.3963 20.1295C23.5542 20.1871 23.5582 20.5254 23.4633 20.5386C23.4179 20.4857 23.374 20.4405 23.3263 20.3753C23.4972 20.4589 23.3698 20.1197 23.3963 20.1295ZM19.6249 23.98C19.7599 23.8508 20.0132 24.448 19.6669 24.1158C19.6606 24.109 19.622 23.984 19.6249 23.98ZM22.3988 21.2161C22.4939 21.3785 22.5958 21.345 22.4653 21.4309C22.4257 21.4039 22.386 21.3768 22.3463 21.3497C22.3639 21.3052 22.3813 21.2605 22.3988 21.2161ZM21.0487 23.6727C21.1433 23.4347 21.1758 23.1491 20.7125 22.9024C20.7113 22.9264 20.7096 22.9502 20.7084 22.9742C20.8797 23.1493 20.7387 23.1012 20.6651 23.1635C20.7242 23.242 20.7024 23.2956 20.7537 23.3611C20.853 23.4877 20.9757 23.5238 21.0487 23.6727ZM13.7459 30.4117C13.719 30.3795 13.6919 30.3472 13.6653 30.3152C13.6582 30.2555 13.6514 30.196 13.6443 30.1363C13.6968 30.1973 13.7493 30.2583 13.8018 30.3193C13.7832 30.3501 13.7648 30.3809 13.7462 30.4117C13.7461 30.4117 13.746 30.4117 13.7459 30.4117ZM25.1978 19.1656C24.8875 18.8251 24.8946 18.9378 24.952 19.2094C25.0339 19.1949 25.116 19.1801 25.1978 19.1656ZM18.2446 26.2131C18.1486 26.1241 18.0531 26.0354 17.957 25.9465C17.9965 26.0997 18.1129 26.195 18.2625 26.2901C18.2566 26.2644 18.2504 26.2388 18.2446 26.2131ZM17.465 27.0714C17.5079 27.0671 17.4212 27.0045 17.4252 27.0035C17.5241 26.983 17.5667 27.0089 17.5837 26.8794C17.5731 26.8509 17.5613 26.8214 17.5501 26.7923C17.3225 26.6324 17.4035 26.7626 17.218 26.7204C17.2974 26.7739 17.3768 26.8276 17.4565 26.8814C17.4026 26.9072 17.3491 26.933 17.2952 26.9588C17.3109 26.984 17.3265 27.009 17.3423 27.0343C17.3828 27.0464 17.427 27.0614 17.465 27.0714ZM13.3577 30.6318C13.3113 30.6629 13.2645 30.694 13.2182 30.7251C13.2645 30.7742 13.3111 30.8236 13.3574 30.8727C13.3575 30.7925 13.3576 30.7121 13.3577 30.6318ZM25.8449 18.2219C25.8311 18.2019 25.8171 18.1819 25.8024 18.1619C25.8232 18.1833 25.8364 18.2031 25.8449 18.2219ZM32.7845 11.5006C32.8618 11.49 32.9032 11.4048 32.9584 11.3636C32.8349 11.2477 32.7455 11.4033 32.6299 11.3737C32.6445 11.4021 32.7519 11.5051 32.7845 11.5006ZM21.9405 22.1297C21.9892 22.2005 22.0376 22.2709 22.0865 22.3415C22.0534 22.3617 22.02 22.3815 21.9867 22.4019C22.0348 22.4515 22.0834 22.5016 22.1315 22.5513C22.1859 22.3698 22.2997 22.538 22.4971 22.6186C22.3116 22.4558 22.1263 22.2928 21.9405 22.1297ZM12.4351 32.1745C12.4872 32.0562 12.4556 31.9642 12.261 31.8656C12.2645 31.9293 12.268 31.9933 12.2716 32.057C12.3261 32.0961 12.3807 32.1352 12.4351 32.1745ZM27.5071 16.7807C27.5236 16.6546 27.7216 16.8503 27.6814 16.6707C27.6077 16.6717 27.5337 16.6723 27.4603 16.6732C27.4759 16.7089 27.4915 16.745 27.5071 16.7807ZM24.5508 20.818C24.6494 20.8563 24.3801 20.4747 24.7049 20.6303C24.6534 20.5385 24.5975 20.4574 24.5446 20.3698C24.6311 20.4361 24.7199 20.5021 24.8053 20.5683C24.8054 20.5682 24.8055 20.5682 24.8055 20.5681C24.8564 20.4656 24.7109 20.4195 24.6316 20.3367C24.5988 20.3023 24.7119 20.3016 24.6209 20.2462C24.4646 20.1513 24.4221 20.3383 24.2687 20.1855C24.359 20.1952 24.396 20.0747 24.2705 19.9959C24.1329 19.9093 24.2466 20.1713 24.1063 20.1255C24.4187 20.3025 24.2033 20.3668 23.9995 20.1948C24.0617 20.4211 24.196 20.4046 24.2734 20.3138C24.3661 20.5091 24.3638 20.3557 24.496 20.463C24.5153 20.5882 24.2734 20.7096 24.5508 20.818ZM20.4145 24.4237C20.4619 24.3577 20.6328 24.3514 20.5501 24.191C20.5019 24.0976 20.3582 24.1316 20.3083 23.9591C20.2639 24.0252 20.2947 24.0813 20.4016 24.1693C20.4007 24.1936 20.3994 24.2178 20.3982 24.2418C20.3734 24.2286 20.3486 24.2158 20.3238 24.2026C20.3573 24.2493 20.3904 24.2957 20.424 24.3423C20.4028 24.3478 20.3813 24.3534 20.3598 24.3586C20.3784 24.3803 20.3932 24.4005 20.4145 24.4237ZM29.5482 14.7275C29.5336 14.7445 29.5192 14.7612 29.5049 14.7784C29.5304 14.8004 29.5571 14.8231 29.5835 14.8455C29.6042 14.8633 29.6249 14.8812 29.6456 14.899C29.5676 14.8393 29.3782 14.7998 29.4201 14.905C29.4411 14.9577 29.6083 15.0526 29.5638 15.1428C29.6059 15.0873 29.6332 15.0242 29.6695 14.9657C29.7041 15.0088 29.7394 15.0523 29.7741 15.0955C29.7742 15.0955 29.7743 15.0955 29.7743 15.0955C29.7989 15.0886 29.824 15.0818 29.8485 15.0749C29.7484 14.959 29.6483 14.8434 29.5482 14.7275ZM18.4735 26.3498C18.4508 26.2196 18.4291 26.162 18.2802 26.0638C18.2801 26.0638 18.28 26.0638 18.2799 26.0638C18.3146 26.1385 18.3493 26.2133 18.3841 26.288C18.4138 26.3086 18.4436 26.3293 18.4735 26.3498ZM26.7153 18.1671C26.3602 17.5837 26.3907 18.1284 26.5995 18.2393C26.609 18.2444 26.6527 18.126 26.7153 18.1671ZM22.2743 22.1057C22.2468 22.1408 22.2188 22.1757 22.1911 22.211C22.256 22.2614 22.3209 22.3114 22.3858 22.3619C22.3487 22.2766 22.3114 22.1909 22.2743 22.1057ZM13.019 32.0166C13.1808 32.1124 13.3121 32.0744 13.2134 31.8929C13.1753 31.8983 13.1372 31.9036 13.099 31.909C13.124 31.8518 13.1469 31.7934 13.1731 31.7368C12.9959 31.5552 13.0523 31.707 12.931 31.7293C12.9119 31.7325 12.6181 31.5808 12.7614 31.7732C12.791 31.8127 12.8901 31.7605 12.9378 31.9134C12.9687 31.8983 12.9868 31.8767 13.0129 31.8594C13.0572 31.9006 13.1016 31.9418 13.146 31.9828C13.1037 31.9942 13.0614 32.0052 13.019 32.0166ZM20.7306 24.0795C20.8184 24.0115 20.7563 23.9302 20.6458 23.7873C20.624 23.8379 20.6019 23.8882 20.58 23.9388C20.6302 23.9855 20.6801 24.0325 20.7306 24.0795ZM13.7563 31.3614C13.8197 31.3395 13.6983 31.2547 13.6959 31.2179C13.687 31.0793 13.8049 31.1087 13.8228 30.9984C13.8385 31.0226 13.8532 31.0451 13.8684 31.0685C13.8684 31.0684 13.8685 31.0684 13.8686 31.0683C14.2589 30.8518 13.8656 30.7773 13.7221 30.9969C13.6795 30.9628 13.637 30.9285 13.5947 30.8947C13.5805 31.043 13.5701 31.1824 13.7563 31.3614ZM25.7169 19.1975C25.7444 19.218 25.8675 19.4 25.8514 19.2733C25.6724 19.0068 25.7112 19.1892 25.6075 19.1215C25.6011 19.0852 25.5956 19.0491 25.5891 19.0129C25.4367 19.0394 25.4766 19.1054 25.6719 19.2356C25.6852 19.2442 25.6895 19.177 25.7169 19.1975ZM26.4146 18.7194C26.0988 18.379 26.1334 18.6394 26.2394 18.7372C26.259 18.7257 26.2156 18.658 26.2567 18.666C26.298 18.6739 26.3789 18.7463 26.4146 18.7194ZM23.1 21.8734C23.1048 21.8716 23.2759 21.9763 23.1647 21.8716C22.868 21.6572 22.9497 21.9045 23.0532 21.979C23.0762 21.9472 23.0561 21.8906 23.1004 21.8738C23.1003 21.8737 23.1001 21.8736 23.1 21.8734ZM12.5826 32.6077C12.5933 32.6153 12.7316 32.5878 12.6909 32.5257C12.6417 32.4589 12.584 32.3924 12.5306 32.3258C12.5406 32.4271 12.4058 32.4772 12.5827 32.6075C12.5827 32.6076 12.5826 32.6076 12.5826 32.6077ZM30.0324 32.3139C29.9545 32.4912 29.8722 32.2416 29.7919 32.5423C29.7561 32.5322 29.7197 32.5224 29.6838 32.5123C29.7486 32.4359 29.813 32.3595 29.8777 32.2832C29.9293 32.2933 29.9809 32.3034 30.0327 32.3136C30.0326 32.3137 30.0325 32.3138 30.0324 32.3139ZM30.958 31.4726C30.7285 31.6455 30.585 31.6093 30.4964 31.892C30.5732 31.8307 30.6501 31.7696 30.7269 31.7082C30.707 31.7955 30.6874 31.8829 30.6678 31.9699C30.7063 31.9557 30.7447 31.9414 30.7829 31.9275C30.6783 32.0629 30.5733 32.1986 30.4684 32.3343C30.4723 32.303 30.4763 32.2713 30.4801 32.24C30.3285 32.2833 30.2537 32.2617 30.162 32.2063C30.14 32.2412 30.1184 32.2758 30.0964 32.3107C30.1074 32.225 30.1185 32.1393 30.1296 32.0539C30.2093 32.0387 30.2981 32.0221 30.3722 32.0078C30.5125 31.7718 30.3234 31.7921 30.2402 31.7874C30.1268 31.7811 30.2298 31.7052 30.1479 31.6982C30.135 31.697 30.064 31.7663 30.0488 31.7535C29.9726 31.6883 29.8724 31.5138 30.1164 31.4305C30.2117 31.568 30.4423 31.5358 30.5085 31.698C30.6675 31.4786 30.792 31.4744 30.958 31.4726ZM28.2175 29.937C28.3447 29.8804 28.3794 29.9893 28.3643 30.1017C28.3644 30.1018 28.3644 30.1019 28.3645 30.1019C28.3611 30.1267 28.2633 30.273 28.2333 30.2331C28.1848 30.1676 28.3495 29.9478 28.1891 30.0484C28.2 30.0107 28.2075 29.975 28.2175 29.937ZM28.0823 29.8245C28.0944 29.7424 28.2551 29.6134 28.2597 29.6964C28.2598 29.6963 28.2599 29.6962 28.26 29.6961C28.2619 29.7307 28.1116 29.8094 28.2933 29.7587C28.2163 29.8625 28.1472 29.9579 28.0729 30.0586C28.0554 30.044 28.0384 30.0318 28.0204 30.0161C28.1804 29.8788 28.0704 29.9062 28.0823 29.8245ZM29.9754 31.4533C29.8363 31.5814 29.8601 31.6036 29.8066 31.7356C29.7739 31.6942 29.7416 31.6525 29.7092 31.6113C29.7981 31.5586 29.8865 31.506 29.9754 31.4533ZM30.8241 32.3433C30.8241 32.3434 30.8242 32.3434 30.8243 32.3435C30.8575 32.3346 30.8908 32.3256 30.9235 32.3167C30.8831 32.3717 30.8427 32.4264 30.8022 32.4813C30.8899 32.4794 30.9777 32.4777 31.0656 32.4754C30.9147 32.616 30.8615 32.5154 30.7173 32.5749C30.6982 32.468 30.7524 32.353 30.8719 32.2254C30.856 32.2645 30.8398 32.304 30.8241 32.3433ZM21.1032 21.4604C21.0485 21.4864 20.994 21.5127 20.9393 21.5387C20.9399 21.5762 20.9447 21.6092 20.9425 21.6498C21.1684 21.5244 21.0178 21.6844 21.0944 21.7395C21.3295 21.9078 21.5487 21.5815 21.3314 22.1632C21.2041 21.998 21.0726 22.2419 20.8398 22.2983C20.9316 22.17 21.2672 22.0091 21.2595 21.8984C21.041 21.9129 20.8344 21.9232 20.646 21.8852C20.6303 21.9076 20.6145 21.9299 20.5987 21.9523C20.6287 21.9582 20.6586 21.964 20.6885 21.9699C20.6182 22.0015 20.5488 22.033 20.4776 22.0649C20.6181 21.9741 20.4901 21.9753 20.6314 21.851C20.6943 21.7956 20.8044 21.7416 20.8774 21.7016C20.8655 21.6282 20.8498 21.5563 20.8365 21.4833C20.906 21.4586 20.9755 21.4338 21.0448 21.4089C21.0645 21.4256 21.0837 21.4427 21.1034 21.4595C21.1034 21.4598 21.1033 21.4601 21.1032 21.4604ZM11.3043 12.8909C11.4961 12.8075 11.6173 12.8831 11.516 13.0881C11.4455 13.0222 11.3748 12.9567 11.3043 12.8909ZM30.9696 32.1194C30.9524 32.149 30.9352 32.178 30.9179 32.2076C30.8475 32.2238 30.7773 32.2396 30.7069 32.2558C30.7693 32.183 30.8315 32.1101 30.8935 32.0374C30.9189 32.0646 30.9442 32.0923 30.9696 32.1194ZM29.1617 30.462C29.1856 30.4777 29.1851 30.4817 29.2001 30.516C29.2002 30.5159 29.2002 30.5159 29.2002 30.5158C29.2064 30.5292 29.2488 30.6505 29.1876 30.6934C29.1461 30.6536 29.1036 30.6094 29.0621 30.5678C29.095 30.5323 29.1287 30.4981 29.1617 30.462ZM29.6096 30.9707C29.6095 30.9708 29.6094 30.971 29.6094 30.9712C29.6163 30.9939 29.6142 31.024 29.6265 31.0422C29.4897 31.0691 29.6279 30.9135 29.5364 30.9052C29.4447 30.8971 29.3328 30.9473 29.4917 30.7037C29.5376 30.6893 29.5977 30.6631 29.649 30.6442C29.6394 30.7955 29.7342 30.7389 29.8704 30.7164C29.7832 30.8013 29.6967 30.8857 29.6096 30.9707ZM21.5942 22.7657C21.7072 22.6798 21.6247 22.7925 21.6251 22.7953C21.6249 22.7953 21.6248 22.7954 21.6246 22.7955C21.8368 22.8233 21.5539 22.835 21.6516 22.9637C21.6099 22.9718 21.5671 22.9814 21.5252 22.9899C21.5474 22.9161 21.5752 22.8351 21.5942 22.7657ZM25.4825 26.6727C25.4546 26.7028 25.4269 26.7332 25.399 26.7632C25.3377 26.6885 25.2063 26.7852 25.2536 26.6248C25.3302 26.6405 25.4066 26.6564 25.4828 26.6724C25.4827 26.6725 25.4826 26.6726 25.4825 26.6727ZM29.0295 29.9083C29.1603 29.9284 29.2405 29.9599 29.2251 30.1201C29.225 30.1203 29.225 30.1205 29.2249 30.1206C29.2237 30.1302 29.1429 30.1706 29.133 30.1914C29.1571 30.1973 29.1864 30.1987 29.2124 30.203C29.1659 30.2536 29.1193 30.3041 29.0731 30.3544C29.0443 30.2981 29.0155 30.2419 28.9866 30.1854C28.9645 30.2201 28.9428 30.2547 28.9207 30.2894C28.8699 30.2678 28.8192 30.2463 28.7683 30.2247C28.8605 30.1577 28.9527 30.0907 29.045 30.0233C29.04 29.9849 29.0343 29.947 29.0295 29.9083ZM24.667 25.223C24.6473 25.2666 24.5721 25.2974 24.5635 25.3432C24.5552 25.3887 24.6485 25.3639 24.5512 25.4452C24.5142 25.4321 24.4741 25.4196 24.4361 25.4067C24.3572 25.6497 24.5847 25.5859 24.3872 25.7859C24.3599 25.6557 24.2713 25.6149 24.14 25.5937C24.3009 25.439 24.5136 25.3789 24.6137 25.1828C24.6311 25.1962 24.6503 25.2094 24.6665 25.2231C24.6666 25.2231 24.6668 25.223 24.667 25.223ZM34.05 31.2432C34.0846 31.3018 34.2558 31.3443 34.2228 31.4951C34.2146 31.5322 33.9695 31.8739 33.9305 31.9124C33.7989 32.0412 33.7222 32 33.7004 32.148C33.6783 32.1276 33.6528 32.1119 33.6294 32.0932C33.5456 32.1845 33.4621 32.2755 33.3785 32.3664C33.4173 32.3789 33.4563 32.3913 33.4954 32.4035C33.4677 32.4338 33.4399 32.4641 33.4122 32.4943C33.3193 32.4026 33.2619 32.5689 33.1099 32.6253C33.1013 32.722 33.0933 32.8189 33.0845 32.9155C33.0656 32.8837 33.0405 32.849 33.0257 32.819C32.8743 32.9644 32.963 32.9824 32.9447 33.0191C32.8408 33.226 32.657 32.8854 32.4196 33.0799C32.4375 33.1457 32.458 33.2131 32.4771 33.2796C32.4382 33.294 32.3991 33.3082 32.3602 33.3226C32.412 33.0764 32.3558 32.9147 32.3354 32.7087C32.319 32.7046 32.3025 32.7007 32.2865 32.6965C32.2225 32.7665 32.1586 32.8361 32.0946 32.9061C32.0712 32.8985 32.0478 32.8907 32.0244 32.8832C32.2906 32.708 32.2246 32.648 32.2832 32.4373C32.4012 32.4002 32.4041 32.4972 32.5452 32.3492C32.2951 32.3215 32.2896 32.0017 32.0289 31.9921C31.9644 31.9896 31.7781 32.1762 31.7164 32.0801C31.7396 32.0623 31.777 32.0258 31.8057 32.0006C31.58 31.9535 31.4439 31.9241 31.3932 31.6913C31.3344 31.7665 31.2752 31.8418 31.2164 31.917C31.2798 31.9137 31.3438 31.9099 31.4071 31.9065C31.3169 32.0376 31.2379 32.0562 31.3288 32.1448C31.4032 32.2174 31.4083 32.1248 31.4611 32.112C31.5329 32.0943 31.4686 32.2062 31.5478 32.1853C31.6087 32.1694 31.6756 32.0538 31.7112 32.1357C31.5693 32.2303 31.4231 32.3283 31.2796 32.4243C31.2919 32.3833 31.3047 32.342 31.3173 32.3008C31.3634 32.2836 31.4089 32.2667 31.455 32.2495C31.3472 32.2553 31.2454 32.2607 31.1338 32.2667C31.3219 32.113 31.2033 32.1225 31.1535 32.1131C31.0758 32.0986 31.233 32.0204 31.1831 32.0098C31.133 31.9995 30.9689 32.0983 30.9424 32.0156C31.0478 31.9688 31.0762 31.8607 31.1541 31.7981C31.2321 31.7356 31.3054 31.7779 31.3265 31.6457C31.1615 31.5972 31.0099 31.9805 30.8944 31.9517C30.7557 31.9172 31.1711 31.4606 31.2907 31.3927C31.3848 31.3392 31.4398 31.424 31.5338 31.371C31.5412 31.1132 31.2783 31.3738 31.2057 31.4037C30.9414 31.5123 31.4913 31.0669 31.2192 31.1548C31.314 31.0635 31.3991 30.9812 31.4901 30.8936C31.4572 30.8947 31.4241 30.9067 31.3915 30.901C31.2668 31.1389 31.2282 31.0848 31.2041 31.0613C31.166 31.0244 31.1355 31.1708 31.1027 31.1837C31.0149 31.218 31.0003 31.1479 30.9464 31.2538C30.9719 31.2049 30.9965 31.155 31.0214 31.1062C30.9313 31.1087 30.44 31.3942 30.6164 31.4137C30.4629 31.5489 30.5006 31.4478 30.4978 31.4012C30.4951 31.3545 30.4036 31.4469 30.3989 31.4082C30.3803 31.2538 30.5941 31.1531 30.731 31.0436C30.532 31.0143 30.5876 31.1823 30.3663 31.0745C30.25 31.159 30.2188 31.3422 30.0976 31.3368C30.2603 31.1507 30.339 30.9788 30.3061 30.83C30.2572 30.8613 30.208 30.893 30.159 30.9242C30.2704 30.7136 30.4632 30.5716 30.1717 30.6794C30.5884 30.3613 30.3195 30.5625 30.3868 30.3307C30.4003 30.2839 30.5151 30.2462 30.5304 30.1843C30.5373 30.1563 30.4541 30.1882 30.4727 30.1179C30.4821 30.0834 30.5648 29.8828 30.4567 29.9093C30.3087 30.1172 30.0798 30.1911 29.999 30.4048C29.9125 30.2457 29.741 30.2452 30.1214 30.1401C30.144 30.0551 30.1665 29.9703 30.1888 29.8855C30.1247 29.9062 30.0606 29.9264 29.9966 29.9467C30.1396 29.7971 30.1839 29.7594 30.0726 29.6995C30.1442 29.7021 30.2163 29.704 30.2885 29.7065C30.3193 29.6782 30.3551 29.6527 30.3826 29.6228C30.2807 29.6333 30.1279 29.5288 30.0577 29.5366C29.9876 29.5443 30.0372 29.6152 29.9905 29.644C29.6043 29.8806 29.8399 29.6568 29.7328 29.6566C29.6697 29.6567 29.7105 29.7663 29.6802 29.7629C29.5684 29.7497 29.7049 29.5553 29.6516 29.4978C29.5773 29.6114 29.5015 29.7263 29.4259 29.8403C29.3727 29.7772 29.3088 29.7116 29.2246 29.6877C29.1916 29.6783 29.1378 29.7642 29.1297 29.7654C29.0885 29.7722 28.9805 29.7403 28.9728 29.7332C28.9166 29.6781 29.0117 29.5797 28.9629 29.5203C28.9923 29.5333 29.0197 29.5459 29.0484 29.5588C29.2147 29.4114 29.3812 29.2642 29.5478 29.1164C29.5062 29.052 29.4643 28.9877 29.4225 28.923C29.409 29.0143 29.3959 29.1055 29.3824 29.1968C29.1949 29.2627 29.007 29.329 28.8192 29.3952C28.8654 29.2857 28.9117 29.1764 28.9579 29.0668C28.8514 29.0014 28.5527 29.3348 28.7888 29.0171C28.74 29.0152 28.6913 29.0132 28.6428 29.011C28.686 28.9751 28.7291 28.9391 28.7722 28.9032C28.7174 28.897 28.6627 28.8906 28.6076 28.8846C28.4998 29.0566 28.3841 29.2354 28.2801 29.403C28.1896 29.3732 28.3071 29.2534 28.3277 29.2148C28.3824 29.1126 28.2294 29.1712 28.2831 29.0797C28.3016 29.0484 28.4387 29.0292 28.5085 28.9188C28.522 28.8973 28.7743 28.4872 28.6475 28.5134C28.5885 28.5743 28.5188 28.6518 28.4555 28.7191C28.3514 28.6879 28.6301 28.3401 28.7269 28.2613C28.6293 28.2867 28.5715 28.2391 28.4681 28.3277C28.4473 28.3116 28.4268 28.2956 28.406 28.2795C28.6591 28.0649 28.5395 28.0308 28.3333 28.2268C28.36 28.2634 28.3865 28.3004 28.4132 28.337C28.1428 28.5595 28.0902 28.8045 28.1183 28.376C28.2083 28.2095 28.1689 28.4615 28.2337 28.3343C28.2354 28.2243 28.1378 28.2202 28.1756 28.0794C28.223 27.9038 28.4091 27.8754 28.1179 27.8681C28.0915 28.553 27.8325 28.0632 27.5675 28.0188C27.8762 27.6251 27.8569 27.3832 27.5725 27.3078C27.4935 27.4243 27.6004 27.4306 27.6009 27.4953C27.6013 27.5601 27.508 27.5829 27.5029 27.6691C27.4979 27.7554 27.5221 27.9037 27.4942 28.0139C27.404 28.0344 27.1013 27.9933 27.3721 27.9498C27.3841 27.7681 27.4438 27.6287 27.3568 27.5054C27.1728 27.6264 27.0802 27.7237 26.9733 27.6256C27.2458 27.4743 27.2766 27.2105 27.5212 27.0173C27.5429 27.1409 27.2895 27.3131 27.2297 27.457C27.2238 27.4715 27.3449 27.4859 27.3568 27.5054C27.4796 27.2459 27.5271 27.1511 27.7966 26.9657C27.7284 26.9373 27.7268 26.8787 27.6138 26.9829C27.6509 26.9257 27.6879 26.8684 27.7251 26.8113C27.7082 26.7968 27.6896 26.787 27.6738 26.7694C27.533 26.9562 27.5893 26.8108 27.4834 26.8535C27.3774 26.8962 27.2905 27.0679 27.2019 26.9828C27.1925 27.0501 27.1861 27.1095 27.1778 27.1738C27.0796 27.1599 26.981 27.1461 26.8828 27.1322C26.822 27.2716 26.7587 27.5056 26.6247 27.635C26.6486 27.5595 26.4727 27.5584 26.4594 27.5523C26.4085 27.5283 26.512 27.4657 26.5112 27.4608C26.4927 27.3615 26.4159 27.3413 26.5194 27.1931C26.4183 27.2056 26.4173 27.1399 26.3672 27.0962C26.3396 27.0721 26.2522 27.1696 26.2546 27.1369C26.2713 26.9193 26.4864 26.8956 26.0652 26.9292C26.0243 27.017 25.9816 27.1061 25.9401 27.1945C25.8939 27.1969 25.8477 27.1996 25.8015 27.202C25.7986 27.1756 25.7959 27.1493 25.7929 27.123C25.9328 26.9837 26.0731 26.8441 26.2131 26.7048C26.2046 26.6812 26.1959 26.6576 26.1874 26.634C26.2287 26.6478 26.2701 26.6616 26.3114 26.6755C26.3385 26.6534 26.3654 26.6312 26.3925 26.6091C26.3896 26.5301 26.3872 26.4509 26.3846 26.3716C26.3353 26.4194 26.2856 26.4675 26.2362 26.5153C26.2116 26.3554 26.2505 26.3121 26.029 26.3582C25.9629 26.2891 25.7048 26.4372 25.5803 26.4836C25.5935 26.4424 25.607 26.4008 25.6201 26.3594C25.5707 26.3908 25.5214 26.422 25.472 26.4534C25.5104 26.3794 25.5486 26.3051 25.5867 26.2314C25.4492 26.3491 25.4043 26.3838 25.4289 26.498C25.2465 26.6328 25.1942 26.4406 25.1978 26.3376C25.2004 26.2594 25.3747 26.169 25.386 26.1481C25.4249 26.0777 25.3155 26.0626 25.3115 26.0405C25.294 25.9475 25.2487 25.9154 25.228 25.8362C25.2242 25.8206 25.2809 25.7095 25.2812 25.7046C25.2776 25.6723 25.274 25.5872 25.2702 25.581C25.0728 25.2585 24.9867 25.9001 24.7833 25.62C24.7426 25.6753 24.7016 25.7296 24.6607 25.7846C24.6395 25.7693 24.6183 25.7536 24.5971 25.7383C24.6141 25.675 24.715 25.6301 24.6102 25.643C24.6723 25.5868 24.7345 25.5307 24.7964 25.475C24.7445 25.4869 24.6936 25.4993 24.6412 25.5107C24.8143 25.2734 24.7436 25.1095 24.9928 24.877C25.0776 24.7978 25.2449 24.7969 25.2885 24.6654C25.27 24.6125 25.1963 24.7345 25.1766 24.7251C25.0357 24.6556 25.179 24.5245 25.0994 24.5181C25.0338 24.5702 24.9667 24.623 24.9004 24.6755C24.9015 24.642 24.9025 24.6085 24.9034 24.5748C24.8601 24.6106 24.8166 24.6462 24.7733 24.6819C24.7859 24.6998 24.8005 24.7197 24.8118 24.7364C24.6392 24.8699 24.391 24.7591 24.5899 24.6971C24.6708 24.672 24.6993 24.7456 24.8479 24.5325C24.7738 24.5105 24.6927 24.4826 24.6161 24.4581C24.6534 24.4176 24.691 24.3771 24.7283 24.3366C24.635 24.2937 24.5413 24.5113 24.4578 24.5946C24.4398 24.5814 24.422 24.5677 24.4041 24.5544C24.4352 24.5101 24.4684 24.4643 24.4981 24.4209C24.4374 24.4803 24.2891 24.6111 24.2945 24.5128C24.2983 24.4493 24.4968 24.3448 24.4189 24.3089C24.3295 24.4068 24.236 24.5414 24.1424 24.5082C24.2338 24.4041 24.3147 24.3059 24.4125 24.1983C24.2397 24.2133 24.3548 24.0264 24.153 24.043C24.0252 24.0534 23.6995 24.2181 24.0394 23.8023C24.0064 23.7494 23.9259 23.8571 23.892 23.8656C23.7319 23.9057 23.8665 23.6819 23.8658 23.6602C23.862 23.5213 23.7681 23.5514 23.7945 23.4087C23.7277 23.4818 23.6632 23.5497 23.5975 23.6205C23.7556 23.5689 23.7776 23.6008 23.8297 23.698C23.7906 23.687 23.7512 23.6763 23.7121 23.6653C23.6595 23.7262 23.6067 23.787 23.5542 23.8474C24.0087 23.8547 23.6015 24.1542 23.3307 24.0379C23.419 23.9161 23.5065 23.794 23.5954 23.6721C23.3243 23.7196 23.4099 23.5287 23.3166 23.3692C23.3053 23.3504 23.19 23.3561 23.1635 23.3356C23.1635 23.3364 23.1635 23.3372 23.1635 23.338C23.0496 23.4225 23.0238 23.488 22.9375 23.5791C22.9136 23.5775 22.8898 23.5758 22.8659 23.5741C22.905 23.4781 22.9705 23.4325 22.8984 23.3926C22.8386 23.4675 22.7788 23.5423 22.719 23.6171C22.6552 23.5581 22.6882 23.4447 22.5994 23.4192C22.6345 23.4033 22.6695 23.3872 22.7046 23.3714C22.6451 23.182 23.1399 22.8852 22.8489 22.9882C22.8775 22.9477 22.9065 22.907 22.935 22.8665C22.9823 22.8967 23.0293 22.9273 23.0763 22.9573C23.126 22.9093 23.1755 22.8615 23.225 22.8132C23.1689 22.7864 23.1122 22.7599 23.0561 22.7331C23.1192 22.7306 23.1824 22.7282 23.2454 22.7256C23.2208 22.6542 23.1962 22.5827 23.1716 22.5113C23.0429 22.742 22.9548 22.6978 22.7893 22.8882C22.8524 22.655 22.9808 22.393 22.724 22.3862C22.673 22.3849 22.5628 22.5235 22.64 22.298C22.4601 22.5138 22.2743 22.5137 22.0981 22.7138C22.133 22.7306 22.1655 22.7516 22.2016 22.7656C22.2384 22.6718 22.4132 22.4875 22.5098 22.4775C22.633 22.4649 22.5892 22.6699 22.7852 22.4673C22.7978 22.4987 22.8128 22.5248 22.8263 22.5541C22.7681 22.5947 22.7097 22.6358 22.6516 22.6766C22.79 22.66 22.8031 22.7235 22.7078 22.8774C22.6065 22.8335 22.5057 22.7895 22.4047 22.7453C22.4069 22.7644 22.4092 22.7838 22.4117 22.8027C22.2294 22.8751 22.1655 23.0524 22.0358 22.9771C22.0946 22.9194 22.1534 22.8617 22.2126 22.8038C22.0195 22.9222 21.9182 22.8191 21.7716 23.0309C21.7958 22.945 21.8243 22.9039 21.7103 22.983C21.7649 22.7655 21.8848 22.541 22.1193 22.3645C22.056 22.3674 21.9926 22.3702 21.9294 22.3732C21.8907 22.4469 21.8523 22.5203 21.8136 22.594C21.7645 22.5379 21.715 22.4814 21.6657 22.4258C21.8269 22.2545 21.8174 22.4766 21.9354 22.2973C21.959 22.2614 21.8668 22.2969 21.8762 22.2727C21.9796 22.0125 21.9713 22.2669 22.0875 22.1046C22.0137 21.9447 22.3405 21.8048 21.9835 21.84C22.0272 21.7877 22.0716 21.7342 22.1154 21.6826C22.0624 21.6238 21.9585 21.7368 21.89 21.7092C21.8472 21.6919 21.9998 21.4638 21.8369 21.5602C21.8071 21.5782 21.6303 21.8667 21.5231 21.7391C21.4399 21.64 21.6423 21.5135 21.6513 21.406C21.6602 21.2984 21.3195 21.4136 21.5447 21.1219C21.5363 21.182 21.5507 21.2333 21.5513 21.2901C21.6133 21.2514 21.6744 21.213 21.736 21.1744C21.6055 21.1739 21.6144 21.0296 21.4502 21.1055C21.5464 20.8345 21.2783 20.9071 21.0975 21.1408C21.1562 21.1397 21.2152 21.018 21.1976 21.1156C21.1534 21.168 21.1097 21.2203 21.0654 21.2727C21.0033 21.1988 20.9547 21.153 21.1329 21.0367C21.1259 21.0227 21.1189 21.0087 21.1119 20.9947C21.0035 21.0993 20.8948 21.2046 20.7864 21.3092C20.7618 21.3087 20.7372 21.3079 20.7126 21.3073C20.722 21.2699 20.7317 21.2322 20.7412 21.1943C20.9289 21.0448 20.9669 21.0717 20.9537 20.87C20.8952 20.9279 20.8367 20.9855 20.7781 21.0434C20.7623 20.8795 20.901 20.736 20.7829 20.6283C21.0717 20.5127 20.7606 20.9186 21.166 20.5126C21.1611 20.5609 21.156 20.6098 21.1511 20.6582C21.2132 20.6027 21.2754 20.547 21.3374 20.4914C21.1897 20.4057 20.6089 20.5988 20.7874 20.2641C20.7466 20.286 20.7099 20.3037 20.6667 20.3278C20.745 20.0964 20.3643 20.411 20.4868 20.1331C20.4998 20.1041 20.8432 19.7942 20.7305 19.7049C20.6905 19.7498 20.6204 19.8226 20.5689 19.8782C20.573 19.8303 20.5785 19.7812 20.5834 19.7329C20.5403 19.7681 20.497 19.8032 20.4535 19.8388C20.4756 19.8913 20.4974 19.944 20.5195 19.9966C20.475 19.979 20.4303 19.9613 20.3858 19.9437C20.3622 20.0483 20.3798 20.0672 20.2527 20.1455C20.2115 20.1165 20.1698 20.0879 20.1285 20.0589C20.0986 20.0816 20.0684 20.1046 20.0384 20.1273C19.977 20.2228 19.9175 20.3167 19.8549 20.4133C19.8275 20.2577 19.7514 20.1746 19.8354 19.9502C19.8495 19.9122 19.994 19.8523 19.8203 19.8629C19.8732 19.8075 19.9149 19.7614 19.9635 19.7099C19.7121 19.7617 19.7245 19.6836 19.7299 19.4701C19.6951 19.6396 19.7014 19.513 19.6295 19.5506C19.5801 19.5766 19.6315 19.6169 19.5869 19.6512C19.5424 19.6852 19.3244 19.784 19.3564 19.854C19.806 19.6544 19.452 20.0766 19.7686 20.0812C19.7021 20.0984 19.6352 20.1154 19.5686 20.1325C19.5519 20.1726 19.5366 20.2087 19.519 20.2514C19.4929 20.0983 19.4953 20.1832 19.4084 20.1964C19.3215 20.2096 19.212 20.1852 19.1534 20.154C19.1349 20.1442 19.2226 20.0863 19.1975 20.0476C19.1804 20.0212 19.0131 20.0698 19.1266 19.9288C19.2005 19.837 19.524 19.7043 19.3915 19.5729C19.4479 19.4669 19.4859 19.5554 19.4971 19.5469C19.6052 19.4618 19.5967 19.3081 19.4855 19.3444C19.4761 19.3477 19.4304 19.4526 19.3687 19.4499C19.2217 19.4441 19.264 19.3137 19.3313 19.1474C19.189 19.2791 18.9611 19.3784 18.9317 19.2478C18.8884 19.2829 18.845 19.3185 18.8014 19.3539C18.8345 19.3456 18.8674 19.3375 18.9006 19.3292C18.8896 19.3673 18.886 19.3996 18.8703 19.4418C18.7561 19.395 18.5559 19.5724 18.4483 19.6029C18.0803 19.7069 18.6595 19.2877 18.7693 19.2255C18.7516 19.2775 18.7294 19.333 18.7098 19.3866C18.7556 19.337 18.8018 19.287 18.848 19.2373C18.6489 19.0411 19.1277 18.8974 19.116 18.7084C18.8555 18.9174 18.7592 18.8663 18.8143 18.6235C18.8027 18.6143 18.792 18.6041 18.7801 18.5952C18.7442 18.6277 18.6919 18.68 18.6665 18.6998C18.5136 18.6265 18.855 18.2448 18.8785 18.1999C18.9828 18.0004 18.7356 18.1736 18.7198 18.1613C18.6534 18.1096 18.7296 17.9991 18.6333 17.983C18.5295 17.9658 18.4993 18.0788 18.4168 18.1245C18.3511 18.1606 18.2944 18.122 18.2219 18.1551C18.2729 18.1197 18.3239 18.0861 18.375 18.0506C18.3712 17.9291 18.3773 17.8206 18.3205 17.7351C17.9244 17.9705 18.3887 17.3696 17.9844 17.8292C18.0223 17.9262 18.0107 18.0131 17.9368 18.1592C17.8785 18.129 17.8205 18.0984 17.7622 18.0682C17.7967 18.0079 17.8337 17.9526 17.8668 17.889C17.733 17.9566 17.6996 17.8367 17.6399 17.8362C17.3605 17.8337 17.2324 18.049 17.3924 17.6318C17.5132 17.6964 17.6532 17.556 17.7259 17.6673C17.8061 17.5474 17.7387 17.5214 17.8889 17.4316C17.7704 17.3722 17.692 17.5081 17.5623 17.5686C17.4504 17.6207 17.3857 17.5652 17.2825 17.6752C17.3349 17.6104 17.3869 17.5489 17.4393 17.4843C17.3811 17.4273 17.3234 17.3697 17.2652 17.3126C17.3509 17.276 17.4368 17.2393 17.5222 17.203C17.5267 17.1613 17.5312 17.1197 17.5357 17.078C17.2037 17.1266 17.308 16.5334 16.8691 17.0505C16.7855 16.9973 16.8369 16.9288 16.8902 16.8012C16.8498 16.8334 16.8156 16.8596 16.7712 16.8959C16.7651 16.8139 16.595 16.9162 16.5915 16.8419C16.5877 16.7679 16.7068 16.6296 16.4848 16.8402C16.5217 16.753 16.5481 16.6764 16.5808 16.5937C16.5165 16.6277 16.4529 16.6612 16.3891 16.6951C16.3912 16.6457 16.3932 16.5964 16.3953 16.547C16.2794 16.6376 16.2311 16.5003 16.1208 16.5287C16.1932 16.3785 16.5447 16.0291 16.3905 16.0005C16.3059 16.0898 16.2216 16.1787 16.137 16.268C16.1342 16.2289 16.1313 16.1899 16.1284 16.1506C16.1555 16.121 16.1828 16.0915 16.2099 16.0619C16.2118 16.0814 16.2136 16.1007 16.2153 16.1205C16.254 16.0632 16.2927 16.0063 16.3315 15.9491C16.2284 15.9883 16.1253 16.0274 16.0221 16.0664C16.0115 16.1636 16.001 16.2608 15.9904 16.3579C15.8723 16.3674 15.8981 16.2659 15.7797 16.2898C15.8586 16.1287 15.9429 16.0747 16.0898 15.9612C16.0635 15.9571 16.0373 15.9523 16.0109 15.9482C16.1512 15.828 16.203 15.7246 16.2817 15.8244C16.3127 15.7811 16.3419 15.7394 16.3745 15.6948C16.354 15.6861 16.3759 15.6452 16.3455 15.6434C16.2625 15.6389 16.0002 15.8341 15.923 15.9173C15.8826 15.9609 16.0061 15.9237 15.945 15.9814C15.7959 16.1219 15.7619 15.9579 15.7592 16.2462C15.6196 16.291 15.6786 16.2108 15.6529 16.1319C15.6087 16.1843 15.5648 16.2362 15.5204 16.2884C15.5184 16.2419 15.5163 16.1955 15.5143 16.149C15.7959 15.9348 15.7103 15.6629 16.0881 15.607C16.0517 15.5483 16.0155 15.4897 15.9798 15.4306C16.015 15.4149 16.05 15.3995 16.0852 15.3838C16.0931 15.4187 16.1012 15.4532 16.1094 15.4878C16.1308 15.4161 16.1518 15.3446 16.1731 15.2728C16.0559 15.271 15.9439 15.3363 15.8072 15.4186C15.7966 15.5677 15.8831 15.436 15.9587 15.4683C15.8875 15.5357 15.8262 15.602 15.7487 15.6701C15.8644 15.4986 15.6689 15.5121 15.6408 15.498C15.5553 15.4551 15.7467 15.3644 15.7067 15.3185C15.6667 15.2725 15.532 15.3058 15.6368 15.1308C15.559 15.2098 15.4806 15.2938 15.4117 15.3677C15.3191 15.3265 15.4251 15.2472 15.4301 15.2283C15.5169 14.9205 15.2903 15.027 15.1437 14.9208C15.1354 14.9611 15.1297 14.9993 15.1231 15.0383C14.8612 15.1094 14.9765 15.1227 15.0043 15.2606C14.9433 15.1662 14.757 15.2636 14.6601 15.2509C14.5632 15.2382 14.542 15.0714 14.5645 14.9803C14.7344 14.9676 14.7589 15.1125 14.8713 15.1746C14.9413 15.0848 14.9993 15.0075 15.0768 14.9095C14.8561 15.0241 14.9375 14.8813 14.9422 14.8416C14.9561 14.725 14.8138 14.8705 14.9376 14.6847C14.8856 14.7392 14.8418 14.7849 14.7933 14.8359C14.7096 14.7077 14.6894 14.4992 14.4237 14.6269C14.5453 14.4927 14.6638 14.3647 14.7871 14.2269C14.646 14.2783 14.7061 14.1413 14.6458 14.126C14.5856 14.1109 14.4966 14.2286 14.4125 14.2242C14.397 14.2233 14.4447 14.1416 14.3768 14.1691C14.3085 14.1967 13.8768 14.4783 14.1794 14.1578C14.1429 14.1183 14.1184 14.071 14.0865 14.0286C14.1402 14.0473 14.1935 14.0665 14.2471 14.085C14.2918 13.9786 14.3364 13.8726 14.381 13.7663C14.3098 13.8297 14.2373 13.8942 14.167 13.9569C14.0019 13.9557 14.0517 13.7853 13.9417 13.7274C13.9233 13.7178 13.8232 13.884 13.795 13.7879C13.7667 13.6917 13.969 13.3971 13.7671 13.3871C13.7567 13.3867 13.5351 13.5456 13.6288 13.3759C13.6501 13.3374 13.7306 13.3296 13.75 13.2706C13.7694 13.2115 13.7131 13.0907 13.7995 12.9904C13.7674 13.0244 13.7387 13.0642 13.7077 13.1005C13.6768 13.1012 13.6457 13.1018 13.6149 13.102C13.6717 13.0423 13.7285 12.9825 13.7851 12.9231C13.5626 12.9717 13.2966 13.1479 13.2409 12.9459C13.1926 13.0667 13.1439 13.1879 13.0953 13.3085C13.1647 13.259 13.2345 13.2091 13.3036 13.1595C13.3393 13.2425 13.3753 13.3256 13.4109 13.4087C13.4883 13.3508 13.5653 13.293 13.6427 13.2351C13.6497 13.2597 13.6568 13.2838 13.6637 13.3083C13.6109 13.3532 13.5583 13.3979 13.5054 13.4427C13.5485 13.4618 13.592 13.4808 13.635 13.4998C13.2833 13.7252 13.4832 13.2989 13.25 13.5485C13.2735 13.497 13.2971 13.4453 13.3209 13.3935C13.1977 13.5044 13.2029 13.4422 13.1711 13.3736C13.1249 13.4427 13.0808 13.5123 13.0331 13.5811C13.0656 13.4509 12.9711 13.3722 12.9519 13.2904C12.9434 13.2544 13.0504 13.1917 13.0538 13.1751C13.0721 13.0892 12.8593 13.1725 12.8575 13.1473C12.8462 12.9966 13.0743 12.6633 12.8009 12.76C12.8465 12.8968 12.8161 12.828 12.7458 12.9631C12.7238 13.0055 12.7744 13.1905 12.6567 13.0132C12.6432 12.9921 12.5694 12.5305 12.806 12.4699C12.7153 12.474 12.6266 12.4949 12.5365 12.5056C12.8312 12.0169 12.4968 12.4184 12.3224 12.6492C12.3057 12.6342 12.2885 12.6211 12.2721 12.6047C12.5197 12.4267 12.3556 12.2362 12.188 12.2834C12.1321 12.299 12.1204 12.4235 12.0416 12.4091C12.0343 12.3719 12.0284 12.3274 12.0217 12.2873C11.921 12.456 11.8024 12.4411 11.6664 12.579C11.7457 12.4143 11.9718 12.1229 12.1355 12.0061C12.0434 12.0277 11.9513 12.0489 11.8589 12.0707C11.8428 12.1196 11.8272 12.1684 11.8111 12.2172C11.7819 12.0159 11.4378 12.0635 11.7015 11.7517C11.6841 11.7384 11.6669 11.7248 11.6496 11.7115C11.5963 11.7554 11.543 11.7995 11.4897 11.8434C11.4627 11.7321 11.4362 11.6207 11.4092 11.5095C11.5009 11.5409 11.5847 11.4864 11.5931 11.6071C11.6241 11.5263 11.655 11.4448 11.6865 11.3645C11.4388 11.4178 11.3267 11.5034 11.2252 11.3123C11.2206 11.3037 11.2363 11.067 11.2448 11.0509C11.2837 10.9774 11.3916 10.922 11.4123 10.8859C11.4705 10.7849 11.5402 10.4548 11.5729 10.4272C11.9747 10.089 12.4175 10.522 12.555 10.6214C13.9806 11.6525 14.918 13.1178 16.1838 14.2934C16.197 14.3052 16.2462 14.2451 16.2539 14.2481C16.3008 14.2676 16.2483 14.3854 16.2571 14.4012C16.2761 14.4347 16.3403 14.3416 16.3595 14.3607C16.5568 14.5597 16.6975 14.7929 16.9092 14.9777C16.923 14.9897 16.8469 15.0395 16.8807 15.051C16.8985 15.0566 17.0317 14.9967 17.0596 15.0217C17.1568 15.109 17.2034 15.2175 17.3022 15.3133C17.3563 15.3657 17.4279 15.4538 17.4889 15.5118C17.5158 15.5375 17.5874 15.5207 17.6148 15.5452C17.6537 15.58 17.5567 15.662 17.5568 15.6732C17.5574 15.7224 17.6591 15.6276 17.6804 15.6535C17.7196 15.7022 17.6564 15.7701 17.7177 15.8203C17.7616 15.8561 17.9046 15.8955 17.9701 15.9305C18.0115 16.1241 18.1897 16.2419 18.3245 16.3263C18.4043 16.3763 18.3185 16.4742 18.3452 16.5003C18.4402 16.5918 18.6283 16.5452 18.7196 16.6289C18.8408 16.7402 18.8662 16.9207 18.9732 17.0389C18.9906 17.058 19.0705 16.9697 19.0906 16.9854C19.1648 17.0438 19.2649 17.1133 19.312 17.1843C19.3646 17.2633 19.2667 17.4098 19.356 17.4493C19.3823 17.4608 19.4949 17.3592 19.5403 17.3771C19.6125 17.406 19.5734 17.5559 19.5982 17.6017C19.6325 17.6641 19.6996 17.513 19.7501 17.5928C19.7522 17.5961 19.6839 17.6839 19.7016 17.6941C19.753 17.7244 19.8103 17.6589 19.8642 17.7245C19.8691 17.731 19.8739 17.8845 19.8815 17.8926C19.9266 17.9401 19.9938 18.0593 20.037 18.0709C20.1912 18.1127 20.2314 17.9183 20.06 18.2562C20.159 18.2306 20.2586 18.2038 20.3581 18.1821C20.2756 18.2126 20.2994 18.3995 20.3121 18.4016C20.4158 18.4204 20.4784 18.2848 20.5396 18.3789C20.2082 18.5052 20.6103 18.5085 20.6613 18.5479C20.9074 18.7371 21.0481 18.9921 21.2683 19.2093C21.3421 19.282 21.4886 19.3317 21.5649 19.4104C21.5829 19.4285 21.5151 19.469 21.5298 19.4861C21.5449 19.5027 21.5881 19.4243 21.603 19.4456C21.6945 19.5793 21.668 19.7823 21.9145 19.742C21.8988 19.7678 21.8823 19.784 21.8678 19.8151C22.0807 19.771 22.0705 20.1064 22.1079 20.1912C22.1666 20.3236 22.2779 20.2612 22.3298 20.3482C22.3981 20.4634 22.3663 20.7709 22.5849 20.4293C22.6566 20.4835 22.7197 20.5417 22.7572 20.6313C22.7614 20.6414 22.6853 20.7077 22.6867 20.712C22.6944 20.7401 22.764 20.6822 22.779 20.6914C22.8198 20.7164 22.6898 20.7391 22.758 20.7647C22.7941 20.778 22.8638 20.7364 22.9336 20.8039C23.3536 21.2116 23.783 21.6809 24.198 22.1145C24.2265 22.1442 24.2762 22.0562 24.3083 22.0971C24.42 22.2393 24.5314 22.5824 24.6566 22.676C24.7818 22.7697 24.8578 22.6443 24.9685 22.6706C24.9899 22.6757 24.9217 22.7222 24.9328 22.735C25.008 22.8208 25.0144 23.0062 25.0661 23.0849C25.1002 23.137 25.1871 23.0433 25.2234 23.0668C25.2773 23.102 25.232 23.239 25.2529 23.2658C25.3518 23.3904 25.5021 23.3938 25.5691 23.5357C25.5848 23.5117 25.6005 23.4906 25.6167 23.4676C25.7371 23.5945 25.8573 23.7211 25.9777 23.848C25.99 23.824 26.0027 23.8001 26.0153 23.7758C26.1504 23.9308 25.9371 24.1109 26.3397 23.6828C26.3649 23.6787 26.393 23.673 26.4166 23.6696C26.1985 23.8794 26.1297 24.1238 26.1869 24.2899C26.191 24.3021 26.4545 24.1485 26.2021 24.389C26.2767 24.343 26.3268 24.31 26.3919 24.2691C26.3409 24.3673 26.2911 24.465 26.2404 24.563C26.2643 24.5646 26.2879 24.5668 26.3118 24.5684C26.362 24.522 26.4107 24.4704 26.4622 24.4271C26.5287 24.479 26.5905 24.6601 26.6434 24.7008C26.7751 24.8015 27.024 24.7892 26.9733 25.0207C27.0317 25.0504 27.0828 24.9119 27.1363 24.9893C27.0957 25.0447 27.0567 25.0977 27.0149 25.1549C27.2829 24.9939 27.1636 25.1356 27.1922 25.2537C27.2113 25.3338 27.2962 25.3138 27.3332 25.3713C27.3426 25.3859 27.2779 25.4472 27.2882 25.4533C27.3221 25.4742 27.487 25.4659 27.5087 25.4829C27.7069 25.6355 27.8479 25.7959 27.9919 25.9861C28.0075 26.0064 28.0463 25.921 28.0623 25.9422C28.088 25.9763 27.975 26.0541 27.9876 26.0761C28.0234 26.137 28.1244 26.0367 28.1971 26.0988C28.4362 26.3034 28.6158 26.6342 28.8408 26.8727C28.8481 26.8799 28.9066 26.8205 28.9151 26.8278C28.9693 26.8763 28.9415 27.0079 28.989 27.0537C29.0675 27.1298 29.2085 27.1051 29.2846 27.1818C29.4336 27.3314 29.5245 27.5072 29.6757 27.6631C29.7994 27.7908 29.9164 27.8921 30.0539 28.0302C30.6546 28.6332 31.456 29.0603 31.9625 29.7658C31.9753 29.7839 31.9169 29.8297 31.9239 29.8321C31.9911 29.8543 32.0654 29.788 31.9341 29.9511C32.0201 29.9791 32.1487 29.8865 32.2096 29.9632C32.2421 30.004 32.0433 30.148 32.1937 30.1217C32.3297 30.0978 32.3618 29.942 32.4324 30.2046C32.4342 30.2117 32.3514 30.3379 32.4132 30.3453C32.475 30.3532 32.5095 30.2381 32.6158 30.2993C32.8652 30.4433 33.0238 30.7826 33.2803 30.9835C33.2964 30.9961 33.4903 31.0782 33.5433 31.0797C33.6461 31.0824 33.7127 30.9937 33.8002 31.0432C33.8678 31.0815 33.8235 31.2131 33.9032 31.2577C33.9126 31.2628 34.0152 31.1845 34.05 31.2432ZM20.6995 21.4074C20.5978 21.4833 20.2478 21.7867 20.2691 21.6092C20.2711 21.5924 20.5357 21.4077 20.5284 21.3288C20.5943 21.3473 20.643 21.3807 20.6998 21.4071C20.6997 21.4072 20.6996 21.4073 20.6995 21.4074ZM32.305 33.6651C32.263 33.5903 32.2206 33.5154 32.1786 33.4406C32.2584 33.4414 32.3382 33.4423 32.4182 33.4427C32.3805 33.5168 32.3427 33.5909 32.305 33.6651ZM25.1869 26.2366C25.187 26.2367 25.187 26.2367 25.1871 26.2368C25.0835 26.2175 24.9798 26.1983 24.8763 26.179C24.9137 26.1545 24.9514 26.1298 24.9889 26.1052C25.0862 26.1048 25.1836 26.1045 25.2808 26.104C25.2495 26.1482 25.2182 26.1924 25.1869 26.2366ZM26.0007 26.3934C26.003 26.4695 25.9312 26.5221 25.8922 26.6042C25.8923 26.6041 25.8924 26.604 25.8925 26.6039C25.8825 26.6254 25.8952 26.6657 25.9031 26.6783C25.9382 26.6356 25.9718 26.5923 26.0063 26.5495C26.1921 26.5468 26.0361 27.0607 25.6695 26.9639C25.7221 26.9182 25.7743 26.8726 25.8269 26.8269C25.6981 26.7256 25.6764 26.4906 26.0007 26.3934ZM19.6323 20.6233C19.373 20.686 19.3075 20.6884 19.2987 20.4589C19.3612 20.4301 19.4236 20.4013 19.4861 20.3725C19.4592 20.4387 19.4326 20.5045 19.4057 20.5707C19.4058 20.5708 19.4058 20.5708 19.4059 20.5709C19.4587 20.5259 19.5116 20.4809 19.5643 20.4358C19.5869 20.4982 19.6097 20.5609 19.6323 20.6233ZM29.6461 30.2715C29.3519 30.6204 29.5309 30.4256 29.3802 30.4199C29.3279 30.418 29.2981 30.5006 29.2719 30.4932C29.1297 30.4533 29.3379 30.2306 29.4703 30.1388C29.5294 30.1827 29.5884 30.2278 29.6459 30.2713C29.646 30.2714 29.646 30.2714 29.6461 30.2715ZM32.0739 32.5657C32.074 32.5657 32.074 32.5658 32.0741 32.5659C31.998 32.6467 31.9402 32.6311 31.9073 32.7467C31.8761 32.715 31.8453 32.6829 31.8139 32.651C31.8305 32.6529 31.847 32.6554 31.8635 32.6574C31.8823 32.6223 31.9013 32.5868 31.9201 32.5517C31.8188 32.6307 31.8608 32.5679 31.8578 32.5046C31.7707 32.6101 31.6834 32.7155 31.5962 32.821C31.5865 32.7539 31.5767 32.6865 31.567 32.6194C31.5908 32.5947 31.6146 32.5699 31.6384 32.5452C31.5929 32.5617 31.5472 32.5787 31.5017 32.5953C31.5267 32.5623 31.5517 32.5298 31.5767 32.4969C31.5373 32.5014 31.4978 32.5058 31.4581 32.5106C31.523 32.4351 31.5918 32.4433 31.5057 32.3928C31.5987 32.3418 31.6914 32.2909 31.7845 32.24C31.8811 32.3484 31.9775 32.457 32.0739 32.5657ZM28.8354 29.6586C28.9618 29.7581 28.8791 29.7772 28.6938 29.9102C28.7411 29.8264 28.7881 29.7425 28.8354 29.6586ZM23.1598 23.6995C23.0184 23.7754 22.878 23.85 22.7397 23.9212C22.6123 23.9151 22.7434 23.6503 22.8712 23.623C23.0248 23.5904 22.9838 23.7577 23.1598 23.6995ZM21.5906 22.227C21.6219 22.3591 21.416 22.4112 21.3224 22.468C21.4207 22.3245 21.3785 22.3037 21.3419 22.239C21.3973 22.2787 21.5856 22.205 21.5909 22.2267C21.5908 22.2268 21.5907 22.2269 21.5906 22.227ZM24.3525 25.1363C24.3885 25.1658 24.4513 25.168 24.4438 25.2342C24.3311 25.3292 24.367 25.1762 24.2549 25.372C24.2314 25.3537 24.2079 25.3352 24.1841 25.3174C24.2611 25.2668 24.291 25.2014 24.3522 25.1368C24.3523 25.1366 24.3524 25.1365 24.3525 25.1363ZM27.619 28.687C27.6777 28.4998 27.6129 28.5402 27.463 28.5607C27.554 28.4515 27.7988 28.361 27.8841 28.3724C27.7957 28.4772 27.7073 28.5821 27.619 28.687ZM12.472 13.4375C12.6151 13.3253 12.7455 13.4225 12.7644 13.5168C12.7387 13.529 12.7128 13.5414 12.6868 13.5539C12.6153 13.5152 12.5436 13.4762 12.472 13.4375ZM21.3265 22.2063C21.3312 22.2185 21.3364 22.2293 21.3419 22.239C21.3321 22.232 21.3261 22.2217 21.3265 22.2063ZM18.4592 18.2315C18.6064 18.1381 18.5668 18.0177 18.6168 18.1619C18.617 18.1618 18.6171 18.1617 18.6172 18.1616C18.6504 18.2569 18.6563 18.2793 18.7065 18.3482C18.5305 18.4813 18.3545 18.4158 18.4891 18.6142C18.4911 18.6165 18.5787 18.5202 18.5927 18.5594C18.597 18.5715 18.5478 18.6732 18.5658 18.7351C18.5717 18.7551 18.6455 18.8754 18.5117 18.7446C18.4079 18.8562 18.2918 18.9582 18.1876 19.063C18.1056 19.0417 18.2769 18.7911 18.2171 18.7416C18.1278 18.6687 17.8732 18.8408 18.1374 18.5453C18.2744 18.5448 18.3932 18.6602 18.2401 18.8438C18.3041 18.9118 18.4609 18.7929 18.4759 18.6715C18.1614 18.5302 18.618 18.4042 18.3084 18.3148C18.2671 18.3513 18.217 18.385 18.1817 18.4228C18.2578 18.225 18.4066 18.2649 18.4592 18.2315ZM18.6381 19.0056C18.5165 19.0485 18.3943 19.0921 18.2726 19.1355C18.4066 19.0014 18.5485 18.9027 18.6861 18.8893C18.67 18.9281 18.654 18.9671 18.6381 19.0056ZM15.2909 15.7289C15.2124 15.7961 15.1305 15.8478 15.0501 15.9061C15.0996 15.8327 14.8751 15.4902 15.0796 15.5741C15.1093 15.5863 15.1082 15.8429 15.2909 15.7289ZM28.1749 29.0234C28.1904 28.9411 28.2062 28.8589 28.2218 28.7768C28.304 28.7969 28.387 28.8163 28.4697 28.8358C28.3714 28.8983 28.2732 28.9609 28.1749 29.0234ZM22.7442 23.0281C22.7556 23.045 22.6085 23.0984 22.6798 23.1381C22.5743 23.1608 22.4813 23.1763 22.3805 23.1961C22.4158 23.1366 22.4508 23.0771 22.4861 23.0175C22.4462 23.0385 22.4063 23.0592 22.3664 23.0802C22.4411 23.0167 22.5137 22.9543 22.5899 22.8901C22.51 23.1064 22.6935 22.9541 22.7442 23.0281ZM25.042 24.7856C24.9042 24.948 24.7161 24.9386 24.7893 25.0597C24.6722 25.1399 24.5908 25.1621 24.5252 25.114C24.5538 25.0671 24.5821 25.0206 24.6107 24.9737C24.5085 25.0734 24.4564 25.0963 24.3525 25.1363C24.3526 25.1362 24.3526 25.136 24.3527 25.1359C24.259 25.0568 24.2978 25.0283 24.443 24.8415C24.4408 25.0267 24.5952 24.8778 24.7477 24.85C24.8525 24.8309 24.8804 24.9149 25.042 24.7856ZM15.5947 16.0292C15.4033 16.0912 15.3431 16.2675 15.363 16.018C15.4026 15.9932 15.4419 15.9688 15.4815 15.944C15.5196 15.972 15.5573 16.0005 15.5947 16.0292ZM24.8468 25.6196C25.0718 25.3798 25.1918 25.1379 24.8033 25.5056C24.7856 25.642 24.9708 25.3988 24.8468 25.6196ZM21.9823 21.891C22.0857 22.016 21.8018 22.2567 21.6237 22.3409C21.6642 22.286 21.7047 22.2309 21.7451 22.1764C21.7034 22.1781 21.6617 22.1798 21.6203 22.1811C21.7409 22.0845 21.8618 21.9876 21.9823 21.891ZM27.1148 27.377C26.8616 27.4557 27.1167 27.5635 26.9521 27.6061C26.8206 27.6403 26.9237 27.409 27.0528 27.3284C27.0725 27.3423 27.0933 27.359 27.1146 27.3768C27.1147 27.3769 27.1147 27.3769 27.1148 27.377ZM26.5624 26.9196C26.3994 27.1112 26.4305 27.0389 26.5313 27.0759C26.5601 27.0865 26.6499 27.3096 26.7312 27.0969C26.6753 27.041 26.6188 26.9794 26.5624 26.9196ZM20.4032 20.8307C20.4794 20.7525 20.7694 20.7034 20.7424 20.7612C20.7426 20.7611 20.7427 20.761 20.7428 20.7609C20.6689 20.9182 20.5254 20.8076 20.4219 21.0214C20.4394 20.7597 20.0652 21.0609 20.5187 20.6245C20.6101 20.6768 20.4843 20.7345 20.4032 20.8307ZM11.3411 11.5795C11.341 11.5794 11.341 11.5793 11.3409 11.5793C11.3454 11.591 11.2987 11.771 11.2513 11.8021C11.2048 11.6883 11.2937 11.628 11.0965 11.676C11.1319 11.6324 11.1667 11.5906 11.2021 11.5464C11.2551 11.5526 11.3189 11.5216 11.3411 11.5795ZM15.1402 15.2667C15.1898 15.2759 15.1599 15.4134 15.1984 15.4419C14.7702 15.6565 14.9423 15.2292 15.1402 15.2667ZM30.9586 31.4725C30.9584 31.4725 30.9582 31.4725 30.958 31.4726C30.9582 31.4724 30.9584 31.4723 30.9586 31.4721C30.9586 31.4722 30.9586 31.4724 30.9586 31.4725ZM17.2295 17.7416C17.2465 17.7169 17.2625 17.6967 17.2776 17.68C17.2791 17.6785 17.2806 17.677 17.2821 17.6755C17.2646 17.6971 17.2471 17.719 17.2295 17.7416ZM20.1295 20.6037C20.1871 20.4458 20.5254 20.4418 20.5386 20.5367C20.4857 20.5821 20.4405 20.626 20.3753 20.6737C20.4589 20.5028 20.1197 20.6302 20.1295 20.6037ZM23.98 24.3751C23.8508 24.2401 24.448 23.9868 24.1158 24.3331C24.109 24.3394 23.984 24.378 23.98 24.3751ZM21.2161 21.6012C21.3785 21.5061 21.345 21.4042 21.4309 21.5347C21.4039 21.5743 21.3768 21.614 21.3497 21.6537C21.3052 21.6361 21.2605 21.6187 21.2161 21.6012ZM23.6727 22.9513C23.4347 22.8567 23.1491 22.8242 22.9024 23.2875C22.9264 23.2887 22.9502 23.2904 22.9742 23.2916C23.1493 23.1203 23.1012 23.2613 23.1635 23.3349C23.242 23.2758 23.2956 23.2976 23.3611 23.2463C23.4877 23.147 23.5238 23.0243 23.6727 22.9513ZM30.4117 30.2541C30.3795 30.281 30.3472 30.3081 30.3152 30.3347C30.2555 30.3418 30.196 30.3486 30.1363 30.3557C30.1973 30.3032 30.2583 30.2507 30.3193 30.1982C30.3501 30.2168 30.3809 30.2352 30.4117 30.2538C30.4117 30.2539 30.4117 30.254 30.4117 30.2541ZM19.1656 18.8022C18.8251 19.1125 18.9378 19.1054 19.2094 19.048C19.1949 18.9661 19.1801 18.884 19.1656 18.8022ZM26.2131 25.7554C26.1241 25.8514 26.0354 25.9469 25.9465 26.043C26.0997 26.0035 26.195 25.8871 26.2901 25.7375C26.2644 25.7434 26.2388 25.7496 26.2131 25.7554ZM27.0714 26.535C27.0671 26.4921 27.0045 26.5788 27.0035 26.5749C26.983 26.4759 27.0089 26.4333 26.8794 26.4163C26.8509 26.4269 26.8214 26.4387 26.7923 26.4499C26.6324 26.6775 26.7626 26.5965 26.7204 26.782C26.7739 26.7026 26.8276 26.6232 26.8814 26.5435C26.9072 26.5974 26.933 26.6509 26.9588 26.7048C26.984 26.6891 27.009 26.6735 27.0343 26.6577C27.0464 26.6172 27.0614 26.573 27.0714 26.535ZM30.6318 30.6423C30.6629 30.6887 30.694 30.7355 30.7251 30.7818C30.7742 30.7355 30.8236 30.6889 30.8727 30.6426C30.7925 30.6425 30.7121 30.6424 30.6318 30.6423ZM18.2219 18.1551C18.2019 18.1689 18.1819 18.1829 18.1619 18.1976C18.1833 18.1768 18.2031 18.1636 18.2219 18.1551ZM11.5006 11.2155C11.49 11.1382 11.4048 11.0968 11.3636 11.0416C11.2477 11.1651 11.4033 11.2545 11.3737 11.3701C11.4021 11.3555 11.5051 11.2481 11.5006 11.2155ZM22.1297 22.0595C22.2005 22.0108 22.2709 21.9624 22.3415 21.9135C22.3617 21.9466 22.3815 21.98 22.4019 22.0133C22.4515 21.9652 22.5016 21.9166 22.5513 21.8685C22.3698 21.8141 22.538 21.7003 22.6186 21.5029C22.4558 21.6884 22.2928 21.8737 22.1297 22.0595ZM32.1745 31.5649C32.0562 31.5128 31.9642 31.5444 31.8656 31.739C31.9293 31.7355 31.9933 31.732 32.057 31.7284C32.0961 31.6739 32.1352 31.6193 32.1745 31.5649ZM16.7807 16.4929C16.6546 16.4764 16.8503 16.2784 16.6707 16.3186C16.6717 16.3923 16.6723 16.4663 16.6732 16.5397C16.7089 16.5241 16.745 16.5085 16.7807 16.4929ZM20.818 19.4492C20.8563 19.3506 20.4747 19.6199 20.6303 19.2951C20.5385 19.3466 20.4574 19.4025 20.3698 19.4554C20.4361 19.3689 20.5021 19.2801 20.5683 19.1947C20.5682 19.1946 20.5682 19.1945 20.5681 19.1945C20.4656 19.1436 20.4195 19.2891 20.3367 19.3684C20.3023 19.4012 20.3016 19.2881 20.2462 19.3791C20.1513 19.5354 20.3383 19.5779 20.1855 19.7313C20.1952 19.641 20.0747 19.604 19.9959 19.7295C19.9093 19.8671 20.1713 19.7534 20.1255 19.8937C20.3025 19.5813 20.3668 19.7967 20.1948 20.0005C20.4211 19.9383 20.4046 19.804 20.3138 19.7266C20.5091 19.6339 20.3557 19.6362 20.463 19.504C20.5882 19.4847 20.7096 19.7266 20.818 19.4492ZM24.4237 23.5855C24.3577 23.5381 24.3514 23.3672 24.191 23.4499C24.0976 23.4981 24.1316 23.6418 23.9591 23.6917C24.0252 23.7361 24.0813 23.7053 24.1693 23.5984C24.1936 23.5993 24.2178 23.6006 24.2418 23.6018C24.2286 23.6266 24.2158 23.6514 24.2026 23.6762C24.2493 23.6427 24.2957 23.6096 24.3423 23.576C24.3478 23.5972 24.3534 23.6187 24.3586 23.6402C24.3803 23.6216 24.4005 23.6068 24.4237 23.5855ZM14.7275 14.4518C14.7445 14.4664 14.7612 14.4808 14.7784 14.4951C14.8004 14.4696 14.8231 14.4429 14.8455 14.4165C14.8633 14.3958 14.8812 14.3751 14.899 14.3544C14.8393 14.4324 14.7998 14.6218 14.905 14.5799C14.9577 14.5589 15.0526 14.3917 15.1428 14.4362C15.0873 14.3941 15.0242 14.3668 14.9657 14.3305C15.0088 14.2959 15.0523 14.2606 15.0955 14.2259C15.0955 14.2258 15.0955 14.2257 15.0955 14.2257C15.0886 14.2011 15.0818 14.176 15.0749 14.1515C14.959 14.2516 14.8434 14.3517 14.7275 14.4518ZM26.3498 25.5265C26.2196 25.5492 26.162 25.5709 26.0638 25.7198C26.0638 25.7199 26.0638 25.72 26.0638 25.7201C26.1385 25.6854 26.2133 25.6507 26.288 25.6159C26.3086 25.5862 26.3293 25.5564 26.3498 25.5265ZM18.1671 17.2847C17.5837 17.6398 18.1284 17.6093 18.2393 17.4005C18.2444 17.391 18.126 17.3473 18.1671 17.2847ZM22.1057 21.7257C22.1408 21.7532 22.1757 21.7812 22.211 21.8089C22.2614 21.744 22.3114 21.6791 22.3619 21.6142C22.2766 21.6513 22.1909 21.6886 22.1057 21.7257ZM32.0166 30.981C32.1124 30.8192 32.0744 30.6879 31.8929 30.7866C31.8983 30.8247 31.9036 30.8628 31.909 30.901C31.8518 30.876 31.7934 30.8531 31.7368 30.8269C31.5552 31.0041 31.707 30.9477 31.7293 31.069C31.7325 31.0881 31.5808 31.3819 31.7732 31.2386C31.8127 31.209 31.7605 31.1099 31.9134 31.0622C31.8983 31.0313 31.8767 31.0132 31.8594 30.9871C31.9006 30.9428 31.9418 30.8984 31.9828 30.854C31.9942 30.8963 32.0052 30.9386 32.0166 30.981ZM24.0795 23.2694C24.0115 23.1816 23.9302 23.2437 23.7873 23.3542C23.8379 23.376 23.8882 23.3981 23.9388 23.42C23.9855 23.3698 24.0325 23.3199 24.0795 23.2694ZM31.3614 30.2437C31.3395 30.1803 31.2547 30.3017 31.2179 30.3041C31.0793 30.313 31.1087 30.1951 30.9984 30.1772C31.0226 30.1615 31.0451 30.1468 31.0685 30.1316C31.0684 30.1316 31.0684 30.1315 31.0683 30.1314C30.8518 29.7411 30.7773 30.1344 30.9969 30.2779C30.9628 30.3205 30.9285 30.363 30.8947 30.4053C31.043 30.4195 31.1824 30.4299 31.3614 30.2437ZM19.1975 18.2831C19.218 18.2556 19.4 18.1325 19.2733 18.1486C19.0068 18.3276 19.1892 18.2888 19.1215 18.3925C19.0852 18.3989 19.0491 18.4044 19.0129 18.4109C19.0394 18.5633 19.1054 18.5234 19.2356 18.3281C19.2442 18.3148 19.177 18.3105 19.1975 18.2831ZM18.7194 17.5854C18.379 17.9012 18.6394 17.8666 18.7372 17.7606C18.7257 17.741 18.658 17.7844 18.666 17.7433C18.6739 17.702 18.7463 17.6211 18.7194 17.5854ZM21.8734 20.9C21.8716 20.8952 21.9763 20.7241 21.8716 20.8353C21.6572 21.132 21.9045 21.0503 21.979 20.9468C21.9472 20.9238 21.8906 20.9439 21.8738 20.8996C21.8737 20.8997 21.8736 20.8999 21.8734 20.9ZM32.6077 31.4174C32.6153 31.4067 32.5878 31.2684 32.5257 31.3091C32.4589 31.3583 32.3924 31.416 32.3258 31.4694C32.4271 31.4594 32.4772 31.5942 32.6075 31.4173C32.6076 31.4173 32.6076 31.4174 32.6077 31.4174Z" fill="#566A49"/>
</svg>
